<svg xmlns="http://www.w3.org/2000/svg" width="18.551" height="25.246" viewBox="0 0 18.551 25.246">
  <g id="Group_198" data-name="Group 198" transform="translate(-82.032 -349.505)">
    <path id="Path_420" data-name="Path 420" d="M.012,1.125c.057.633.366,1.013.87,1.063,3.831.106,9.956.722,17.619,1.771.429.043.68-.21.623-.843s-.259-.932-.744-1.051A99.122,99.122,0,0,0,.61,0C.137.022-.051.421.012,1.125Z" transform="translate(84.014 349.505) rotate(30)" fill="#ffde00"/>
    <path id="Path_421" data-name="Path 421" d="M.012,1.125c.057.633.366,1.013.87,1.063,3.831.106,9.956.722,17.619,1.771.429.043.68-.21.623-.843s-.259-.932-.744-1.051A99.122,99.122,0,0,0,.61,0C.137.022-.051.421.012,1.125Z" transform="matrix(0.719, -0.695, 0.695, 0.719, 83.05, 371.9)" fill="#ffde00"/>
  </g>
</svg>
