<svg xmlns="http://www.w3.org/2000/svg" xmlns:xlink="http://www.w3.org/1999/xlink" width="111.338" height="111.338" viewBox="0 0 111.338 111.338"><defs><filter id="a" x="0" y="0" width="111.338" height="111.338" filterUnits="userSpaceOnUse"><feOffset dy="3" input="SourceAlpha"/><feGaussianBlur stdDeviation="3" result="b"/><feFlood flood-opacity="0.655"/><feComposite operator="in" in2="b"/><feComposite in="SourceGraphic"/></filter><filter id="c" x="23.532" y="36.02" width="56.695" height="39.948" filterUnits="userSpaceOnUse"><feOffset dy="3" input="SourceAlpha"/><feGaussianBlur stdDeviation="3" result="d"/><feFlood flood-opacity="0.161"/><feComposite operator="in" in2="d"/><feComposite in="SourceGraphic"/></filter><filter id="e" x="40.532" y="36.02" width="56.695" height="39.948" filterUnits="userSpaceOnUse"><feOffset dy="3" input="SourceAlpha"/><feGaussianBlur stdDeviation="3" result="f"/><feFlood flood-opacity="0.161"/><feComposite operator="in" in2="f"/><feComposite in="SourceGraphic"/></filter></defs><g transform="translate(9 6)"><g transform="matrix(1, 0, 0, 1, -9, -6)" filter="url(#a)"><g transform="translate(55.67 99.34) rotate(-135)" stroke="#c2cbaa" stroke-width="1"><rect width="66" height="66" rx="33" stroke="none"/><rect x="0.5" y="0.5" width="65" height="65" rx="32.5" fill="none"/></g></g><g transform="translate(23.532 36.02)"><g transform="translate(0 0)"><g transform="matrix(1, 0, 0, 1, -32.53, -42.02)" filter="url(#c)"><path d="M1541.883,703.428c4.991,1.384,10.831,4.126,14.174,9.6,1.616-4.944,5.7-7.74,9.1-9.265a12.315,12.315,0,0,1,5.8,4.727h.434V695.623h-.434a12.551,12.551,0,0,1-5.8,4.754c-3.4-1.554-7.483-4.35-9.1-9.294-3.344,5.508-9.183,8.248-14.174,9.6a38.434,38.434,0,0,1-9.183,1.383A39.125,39.125,0,0,1,1541.883,703.428Z" transform="translate(-1500.17 -649.06)" fill="#c2cbaa"/></g><g transform="translate(-1532.7 -698.265)" fill="#fff" stroke-miterlimit="10"><path d="M 1540.442626953125 708.7498779296875 C 1540.954345703125 708.6316528320312 1541.47998046875 708.4994506835938 1542.01611328125 708.3516845703125 C 1544.958984375 707.5516967773438 1547.595458984375 706.4405517578125 1549.8505859375 705.0496826171875 C 1552.368774414062 703.4963989257812 1554.411376953125 701.5908203125 1555.934326171875 699.3759155273438 C 1556.728515625 701.3082275390625 1557.95849609375 703.0455932617188 1559.600341796875 704.5513305664062 C 1561.06787109375 705.8972778320312 1562.86767578125 707.0619506835938 1564.949462890625 708.0131225585938 L 1565.152099609375 708.105712890625 L 1565.3564453125 708.0169677734375 C 1567.721801757812 706.9896850585938 1569.5810546875 705.5701293945312 1570.895141601562 703.790283203125 L 1570.895141601562 708.7390747070312 L 1540.442626953125 708.7498779296875 Z" stroke="none"/><path d="M 1544.085205078125 708.2485961914062 L 1564.259399414062 708.2413940429688 C 1562.332885742188 707.311767578125 1560.653686523438 706.19580078125 1559.262451171875 704.9197998046875 C 1557.79638671875 703.5752563476562 1556.647583007812 702.0507202148438 1555.83203125 700.37060546875 C 1554.335083007812 702.3414306640625 1552.418090820312 704.053466796875 1550.113037109375 705.4752197265625 C 1548.324829101562 706.5781860351562 1546.303344726562 707.5076904296875 1544.085205078125 708.2485961914062 M 1566.073608398438 708.2407836914062 L 1570.395141601562 708.2392578125 L 1570.395141601562 705.1689453125 C 1569.240112304688 706.3992309570312 1567.794555664062 707.4273071289062 1566.073608398438 708.2407836914062 M 1532.699829101562 709.2526245117188 C 1532.699829101562 709.2526245117188 1536.866455078125 709.2526245117188 1541.883178710938 707.8696899414062 C 1546.874145507812 706.512939453125 1552.713745117188 703.7731323242188 1556.0576171875 698.264892578125 C 1557.673950195312 703.20849609375 1561.756591796875 706.004638671875 1565.1572265625 707.558349609375 C 1567.353393554688 706.6045532226562 1569.51611328125 705.119384765625 1570.961547851562 702.803955078125 L 1571.395141601562 702.803955078125 L 1571.395141601562 709.2388916015625 L 1532.699829101562 709.2526245117188 Z" stroke="none" fill="#c2cbaa"/></g></g><g transform="translate(17 0)" opacity="0"><g transform="matrix(1, 0, 0, 1, -49.53, -42.02)" filter="url(#e)"><path d="M1541.883,703.428c4.991,1.384,10.831,4.126,14.174,9.6,1.616-4.944,5.7-7.74,9.1-9.265a12.315,12.315,0,0,1,5.8,4.727h.434V695.623h-.434a12.551,12.551,0,0,1-5.8,4.754c-3.4-1.554-7.483-4.35-9.1-9.294-3.344,5.508-9.183,8.248-14.174,9.6a38.434,38.434,0,0,1-9.183,1.383A39.125,39.125,0,0,1,1541.883,703.428Z" transform="translate(-1483.17 -649.06)" fill="#c2cbaa"/></g><g transform="translate(-1532.7 -698.265)" fill="#fff" stroke-miterlimit="10"><path d="M 1540.442626953125 708.7498779296875 C 1540.954345703125 708.6316528320312 1541.47998046875 708.4994506835938 1542.01611328125 708.3516845703125 C 1544.958984375 707.5516967773438 1547.595458984375 706.4405517578125 1549.8505859375 705.0496826171875 C 1552.368774414062 703.4963989257812 1554.411376953125 701.5908203125 1555.934326171875 699.3759155273438 C 1556.728515625 701.3082275390625 1557.95849609375 703.0455932617188 1559.600341796875 704.5513305664062 C 1561.06787109375 705.8972778320312 1562.86767578125 707.0619506835938 1564.949462890625 708.0131225585938 L 1565.152099609375 708.105712890625 L 1565.3564453125 708.0169677734375 C 1567.721801757812 706.9896850585938 1569.5810546875 705.5701293945312 1570.895141601562 703.790283203125 L 1570.895141601562 708.7390747070312 L 1540.442626953125 708.7498779296875 Z" stroke="none"/><path d="M 1544.085205078125 708.2485961914062 L 1564.259399414062 708.2413940429688 C 1562.332885742188 707.311767578125 1560.653686523438 706.19580078125 1559.262451171875 704.9197998046875 C 1557.79638671875 703.5752563476562 1556.647583007812 702.0507202148438 1555.83203125 700.37060546875 C 1554.335083007812 702.3414306640625 1552.418090820312 704.053466796875 1550.113037109375 705.4752197265625 C 1548.324829101562 706.5781860351562 1546.303344726562 707.5076904296875 1544.085205078125 708.2485961914062 M 1566.073608398438 708.2407836914062 L 1570.395141601562 708.2392578125 L 1570.395141601562 705.1689453125 C 1569.240112304688 706.3992309570312 1567.794555664062 707.4273071289062 1566.073608398438 708.2407836914062 M 1532.699829101562 709.2526245117188 C 1532.699829101562 709.2526245117188 1536.866455078125 709.2526245117188 1541.883178710938 707.8696899414062 C 1546.874145507812 706.512939453125 1552.713745117188 703.7731323242188 1556.0576171875 698.264892578125 C 1557.673950195312 703.20849609375 1561.756591796875 706.004638671875 1565.1572265625 707.558349609375 C 1567.353393554688 706.6045532226562 1569.51611328125 705.119384765625 1570.961547851562 702.803955078125 L 1571.395141601562 702.803955078125 L 1571.395141601562 709.2388916015625 L 1532.699829101562 709.2526245117188 Z" stroke="none" fill="#c2cbaa"/></g></g></g></g></svg>