<svg xmlns="http://www.w3.org/2000/svg" xmlns:xlink="http://www.w3.org/1999/xlink" width="39.948" height="56.695" viewBox="0 0 39.948 56.695">
  <defs>
    <filter id="Path_4776" x="0" y="0" width="39.948" height="56.695" filterUnits="userSpaceOnUse">
      <feOffset dy="3" input="SourceAlpha"/>
      <feGaussianBlur stdDeviation="3" result="blur"/>
      <feFlood flood-opacity="0.161"/>
      <feComposite operator="in" in2="blur"/>
      <feComposite in="SourceGraphic"/>
    </filter>
  </defs>
  <g id="Group_255" data-name="Group 255" transform="translate(9 44.695) rotate(-90)">
    <g transform="matrix(0, 1, -1, 0, 44.7, -9)" filter="url(#Path_4776)">
      <path id="Path_4776-2" data-name="Path 4776" d="M9.183,9.6C14.174,8.219,20.014,5.478,23.358,0c1.616,4.944,5.7,7.74,9.1,9.265a12.315,12.315,0,0,0,5.8-4.727H38.7V17.409h-.434a12.551,12.551,0,0,0-5.8-4.754c-3.4,1.554-7.483,4.35-9.1,9.294-3.344-5.508-9.183-8.248-14.174-9.6A38.433,38.433,0,0,0,0,10.96,39.125,39.125,0,0,0,9.183,9.6Z" transform="translate(9 44.7) rotate(-90)" fill="#c2cbaa"/>
    </g>
    <g id="Path_4777" data-name="Path 4777" transform="translate(0 10.96)" fill="#fff" stroke-miterlimit="10">
      <path d="M 23.23452949523926 9.87684440612793 C 21.71149063110352 7.661922931671143 19.66900634765625 5.756317615509033 17.15071678161621 4.20302677154541 C 14.89568614959717 2.812127113342285 12.25921630859375 1.700976967811584 9.314516067504883 0.9004470109939575 C 8.779284477233887 0.7529012560844421 8.254075050354004 0.620843768119812 7.743042945861816 0.5027464628219604 L 38.19531631469727 0.5135595202445984 L 38.19531631469727 5.462421417236328 C 36.88118743896484 3.682604551315308 35.0219612121582 2.263018131256104 32.65658569335938 1.235666990280151 L 32.45223617553711 1.14691698551178 L 32.24960708618164 1.239496946334839 C 30.16776657104492 2.190706968307495 28.36807632446289 3.355447053909302 26.90052604675293 4.701356887817383 C 25.25871276855469 6.207104682922363 24.02871322631836 7.944493770599365 23.23452949523926 9.87684440612793 Z" stroke="none"/>
      <path d="M 11.38498497009277 1.004039764404297 C 13.6042308807373 1.745327949523926 15.62544250488281 2.674777030944824 17.41320610046387 3.777466773986816 C 19.71824836730957 5.199234485626221 21.63522338867188 6.911283016204834 23.13218688964844 8.882138252258301 C 23.94771957397461 7.20197582244873 25.09650230407715 5.677433490753174 26.56257629394531 4.33286714553833 C 27.95386123657227 3.056887149810791 29.63304901123047 1.940916061401367 31.55953788757324 1.011203765869141 L 11.38498497009277 1.004039764404297 M 33.37380218505859 1.011847496032715 C 35.09448623657227 1.825297355651855 36.54032897949219 2.853643417358398 37.69531631469727 4.083762168884277 L 37.69531631469727 1.013381958007812 L 33.37380218505859 1.011847496032715 M -3.814697265625e-06 -2.86102294921875e-06 L 38.69531631469727 0.01373672485351562 L 38.69531631469727 6.448727130889893 L 38.26171493530273 6.448727130889893 C 36.81628799438477 4.133296966552734 34.653564453125 2.648137092590332 32.4573974609375 1.694276809692383 C 29.05676651000977 3.248046875 24.97411727905273 6.044187068939209 23.35778617858887 10.9878568649292 C 20.013916015625 5.479557037353516 14.17431640625 2.739747047424316 9.183345794677734 1.382937431335449 C 4.1666259765625 -2.86102294921875e-06 -3.814697265625e-06 -2.86102294921875e-06 -3.814697265625e-06 -2.86102294921875e-06 Z" stroke="none" fill="#c2cbaa"/>
    </g>
  </g>
</svg>
