<svg xmlns="http://www.w3.org/2000/svg" xmlns:xlink="http://www.w3.org/1999/xlink" width="111.338" height="111.338" viewBox="0 0 111.338 111.338"><defs><filter id="a" x="0" y="0" width="111.338" height="111.338" filterUnits="userSpaceOnUse"><feOffset dy="3" input="SourceAlpha"/><feGaussianBlur stdDeviation="3" result="b"/><feFlood flood-opacity="0.655"/><feComposite operator="in" in2="b"/><feComposite in="SourceGraphic"/></filter><filter id="c" x="31.11" y="36.02" width="56.695" height="39.948" filterUnits="userSpaceOnUse"><feOffset dy="3" input="SourceAlpha"/><feGaussianBlur stdDeviation="3" result="d"/><feFlood flood-opacity="0.161"/><feComposite operator="in" in2="d"/><feComposite in="SourceGraphic"/></filter><filter id="e" x="14.11" y="36.02" width="56.695" height="39.948" filterUnits="userSpaceOnUse"><feOffset dy="3" input="SourceAlpha"/><feGaussianBlur stdDeviation="3" result="f"/><feFlood flood-opacity="0.161"/><feComposite operator="in" in2="f"/><feComposite in="SourceGraphic"/></filter></defs><g transform="translate(9 6)"><g transform="matrix(1, 0, 0, 1, -9, -6)" filter="url(#a)"><g transform="translate(9 52.67) rotate(-45)" stroke="#c2cbaa" stroke-width="1"><rect width="66" height="66" rx="33" stroke="none"/><rect x="0.5" y="0.5" width="65" height="65" rx="32.5" fill="none"/></g></g><g transform="translate(-1642.331 -369.331)"><g transform="translate(1673.441 405.351)"><g transform="matrix(1, 0, 0, 1, -40.11, -42.02)" filter="url(#c)"><path d="M1562.212,703.428c-4.991,1.384-10.831,4.126-14.174,9.6-1.616-4.944-5.7-7.74-9.1-9.265a12.315,12.315,0,0,0-5.8,4.727h-.434V695.623h.434a12.551,12.551,0,0,0,5.8,4.754c3.4-1.554,7.483-4.35,9.1-9.294,3.344,5.508,9.183,8.248,14.174,9.6a38.436,38.436,0,0,0,9.183,1.383A39.127,39.127,0,0,0,1562.212,703.428Z" transform="translate(-1492.59 -649.06)" fill="#c2cbaa"/></g><g transform="translate(-1532.7 -698.265)" fill="#fff" stroke-miterlimit="10"><path d="M 1563.651977539062 708.7498168945312 L 1533.19970703125 708.739013671875 L 1533.19970703125 703.790283203125 C 1534.513916015625 705.570068359375 1536.373046875 706.9896240234375 1538.738403320312 708.0169067382812 L 1538.942749023438 708.1056518554688 L 1539.145385742188 708.0130615234375 C 1541.227294921875 707.0618896484375 1543.026977539062 705.897216796875 1544.494506835938 704.55126953125 C 1546.136352539062 703.0455932617188 1547.366333007812 701.3082275390625 1548.160522460938 699.3759155273438 C 1549.68359375 701.5907592773438 1551.72607421875 703.496337890625 1554.244262695312 705.0496215820312 C 1556.499389648438 706.4404907226562 1559.135864257812 707.5516357421875 1562.08056640625 708.3521118164062 C 1562.61572265625 708.4996337890625 1563.140991210938 708.6317138671875 1563.651977539062 708.7498168945312 Z" stroke="none"/><path d="M 1560.010009765625 708.24853515625 C 1557.790771484375 707.5072631835938 1555.76953125 706.577880859375 1553.981811523438 705.4751586914062 C 1551.6767578125 704.053466796875 1549.759765625 702.3414306640625 1548.262817382812 700.37060546875 C 1547.447265625 702.0507202148438 1546.298461914062 703.5752563476562 1544.832397460938 704.9197998046875 C 1543.441162109375 706.1957397460938 1541.761962890625 707.3117065429688 1539.83544921875 708.2413330078125 L 1560.010009765625 708.24853515625 M 1538.021240234375 708.24072265625 C 1536.300415039062 707.42724609375 1534.854736328125 706.399169921875 1533.69970703125 705.1688842773438 L 1533.69970703125 708.2391967773438 L 1538.021240234375 708.24072265625 M 1571.395141601562 709.2525634765625 L 1532.69970703125 709.2388305664062 L 1532.69970703125 702.803955078125 L 1533.13330078125 702.803955078125 C 1534.578735351562 705.1193237304688 1536.741455078125 706.6044921875 1538.937622070312 707.5582885742188 C 1542.338256835938 706.0045776367188 1546.4208984375 703.20849609375 1548.037231445312 698.264892578125 C 1551.381103515625 703.7731323242188 1557.220703125 706.5128784179688 1562.211669921875 707.86962890625 C 1567.228515625 709.2525634765625 1571.395141601562 709.2525634765625 1571.395141601562 709.2525634765625 Z" stroke="none" fill="#c2cbaa"/></g></g><g transform="translate(1656.441 405.351)" opacity="0"><g transform="matrix(1, 0, 0, 1, -23.11, -42.02)" filter="url(#e)"><path d="M1562.212,703.428c-4.991,1.384-10.831,4.126-14.174,9.6-1.616-4.944-5.7-7.74-9.1-9.265a12.315,12.315,0,0,0-5.8,4.727h-.434V695.623h.434a12.551,12.551,0,0,0,5.8,4.754c3.4-1.554,7.483-4.35,9.1-9.294,3.344,5.508,9.183,8.248,14.174,9.6a38.436,38.436,0,0,0,9.183,1.383A39.127,39.127,0,0,0,1562.212,703.428Z" transform="translate(-1509.59 -649.06)" fill="#c2cbaa"/></g><g transform="translate(-1532.7 -698.265)" fill="#fff" stroke-miterlimit="10"><path d="M 1563.651977539062 708.7498168945312 L 1533.19970703125 708.739013671875 L 1533.19970703125 703.790283203125 C 1534.513916015625 705.570068359375 1536.373046875 706.9896240234375 1538.738403320312 708.0169067382812 L 1538.942749023438 708.1056518554688 L 1539.145385742188 708.0130615234375 C 1541.227294921875 707.0618896484375 1543.026977539062 705.897216796875 1544.494506835938 704.55126953125 C 1546.136352539062 703.0455932617188 1547.366333007812 701.3082275390625 1548.160522460938 699.3759155273438 C 1549.68359375 701.5907592773438 1551.72607421875 703.496337890625 1554.244262695312 705.0496215820312 C 1556.499389648438 706.4404907226562 1559.135864257812 707.5516357421875 1562.08056640625 708.3521118164062 C 1562.61572265625 708.4996337890625 1563.140991210938 708.6317138671875 1563.651977539062 708.7498168945312 Z" stroke="none"/><path d="M 1560.010009765625 708.24853515625 C 1557.790771484375 707.5072631835938 1555.76953125 706.577880859375 1553.981811523438 705.4751586914062 C 1551.6767578125 704.053466796875 1549.759765625 702.3414306640625 1548.262817382812 700.37060546875 C 1547.447265625 702.0507202148438 1546.298461914062 703.5752563476562 1544.832397460938 704.9197998046875 C 1543.441162109375 706.1957397460938 1541.761962890625 707.3117065429688 1539.83544921875 708.2413330078125 L 1560.010009765625 708.24853515625 M 1538.021240234375 708.24072265625 C 1536.300415039062 707.42724609375 1534.854736328125 706.399169921875 1533.69970703125 705.1688842773438 L 1533.69970703125 708.2391967773438 L 1538.021240234375 708.24072265625 M 1571.395141601562 709.2525634765625 L 1532.69970703125 709.2388305664062 L 1532.69970703125 702.803955078125 L 1533.13330078125 702.803955078125 C 1534.578735351562 705.1193237304688 1536.741455078125 706.6044921875 1538.937622070312 707.5582885742188 C 1542.338256835938 706.0045776367188 1546.4208984375 703.20849609375 1548.037231445312 698.264892578125 C 1551.381103515625 703.7731323242188 1557.220703125 706.5128784179688 1562.211669921875 707.86962890625 C 1567.228515625 709.2525634765625 1571.395141601562 709.2525634765625 1571.395141601562 709.2525634765625 Z" stroke="none" fill="#c2cbaa"/></g></g></g></g></svg>