<svg xmlns="http://www.w3.org/2000/svg" xmlns:xlink="http://www.w3.org/1999/xlink" width="65.582" height="101.89" viewBox="0 0 65.582 101.89"><defs><filter id="a" x="0" y="0" width="65.582" height="101.89" filterUnits="userSpaceOnUse"><feOffset dy="3" input="SourceAlpha"/><feGaussianBlur stdDeviation="3" result="b"/><feFlood flood-opacity="0.161"/><feComposite operator="in" in2="b"/><feComposite in="SourceGraphic"/></filter></defs><g transform="translate(56.582 6) rotate(90)"><g transform="matrix(0, -1, 1, 0, -6, 56.58)" filter="url(#a)"><path d="M1552.609,717.846c10.82,3,23.48,8.944,30.729,20.82,3.5-10.718,12.355-16.78,19.727-20.085a26.7,26.7,0,0,1,12.584,10.248h.94v-27.9h-.94a27.208,27.208,0,0,1-12.584,10.307c-7.372-3.369-16.223-9.43-19.727-20.148-7.249,11.942-19.909,17.881-30.729,20.823a83.322,83.322,0,0,1-19.909,3A84.821,84.821,0,0,1,1552.609,717.846Z" transform="translate(747.67 -1526.7) rotate(90)" fill="#c2cbaa"/></g><g transform="translate(-1532.7 -698.265)" fill="#fff" stroke-miterlimit="10"><path d="M 1543.3876953125 721.5819091796875 C 1546.131713867188 721.1458129882812 1549.344848632812 720.506103515625 1552.74169921875 719.5697021484375 C 1559.069946289062 717.8494262695312 1564.734008789062 715.4629516601562 1569.5751953125 712.4769897460938 C 1575.313842773438 708.9373779296875 1579.895629882812 704.5465698242188 1583.208129882812 699.4149169921875 C 1584.8701171875 703.94140625 1587.626831054688 707.9902954101562 1591.41357421875 711.4632568359375 C 1594.549926757812 714.3396606445312 1598.400390625 716.830810546875 1602.85791015625 718.8674926757812 L 1603.060546875 718.9600830078125 L 1603.264892578125 718.871337890625 C 1608.85791015625 716.4423828125 1613.11572265625 712.9893188476562 1615.9248046875 708.6053466796875 L 1616.089599609375 708.6053466796875 L 1616.089599609375 721.55615234375 L 1543.3876953125 721.5819091796875 Z" stroke="none"/><path d="M 1548.722534179688 721.0800170898438 L 1615.589599609375 721.0563354492188 L 1615.589599609375 709.9860229492188 C 1612.741577148438 713.9299926757812 1608.669921875 717.069091796875 1603.463989257812 719.3299560546875 L 1603.055297851562 719.5074462890625 L 1602.650146484375 719.322265625 C 1598.144897460938 717.2637939453125 1594.250610351562 714.7435913085938 1591.07568359375 711.8317260742188 C 1587.484741210938 708.5384521484375 1584.804931640625 704.7328491210938 1583.089965820312 700.497314453125 C 1579.785522460938 705.3446655273438 1575.336181640625 709.5110473632812 1569.837646484375 712.9025268554688 C 1564.955688476562 715.9136962890625 1559.247314453125 718.3193359375 1552.874633789062 720.0517578125 C 1551.451416015625 720.4440307617188 1550.060791015625 720.7844848632812 1548.722534179688 721.0800170898438 M 1532.699951171875 722.085693359375 C 1532.699951171875 722.085693359375 1541.732788085938 722.085693359375 1552.60888671875 719.0877075195312 C 1563.428955078125 716.1463012695312 1576.089111328125 710.20654296875 1583.33837890625 698.264892578125 C 1586.842529296875 708.9824829101562 1595.693603515625 715.0443115234375 1603.065673828125 718.4127197265625 C 1607.8271484375 716.3449096679688 1612.515869140625 713.1251220703125 1615.6494140625 708.1053466796875 L 1616.589599609375 708.1053466796875 L 1616.589599609375 722.0559692382812 L 1532.699951171875 722.085693359375 Z" stroke="none" fill="#c2cbaa"/></g></g></svg>