<svg xmlns="http://www.w3.org/2000/svg" xmlns:xlink="http://www.w3.org/1999/xlink" width="865.405" height="42.491" viewBox="0 0 865.405 42.491"><defs><clipPath id="a"><rect width="865.405" height="42.491" fill="#fff"/></clipPath></defs><g transform="translate(0 0)" clip-path="url(#a)"><path d="M221.4,39.14c-.27,0-.54-.009-.81-.03-1.442.027-14.326-.206-23.14-16.112-2.919-5.188-6.863-10.048-10.283-12.676l-.52-.419A16.574,16.574,0,0,0,171.017,7a15.329,15.329,0,0,0-10.29,10.762q-.161.608-.282,1.232a13.463,13.463,0,0,0,2.614,10.73c3.427,4.563,7.974,6.582,12.495,5.535a10.675,10.675,0,0,0,8.019-8.429,8.037,8.037,0,0,0-1.493-6.236c-2.033-2.765-4.727-4-7.381-3.4a6.178,6.178,0,0,0-4.67,4.9,4.63,4.63,0,0,0,3.585,5.432l-.694,3.509a8.216,8.216,0,0,1-6.408-9.613,9.752,9.752,0,0,1,7.394-7.715c4.047-.925,8.18.865,11.055,4.769a11.626,11.626,0,0,1,2.122,9.029A14.252,14.252,0,0,1,176.36,38.746c-5.872,1.358-11.911-1.211-16.162-6.872a16.987,16.987,0,0,1-3.264-13.559c.1-.5.211-.989.336-1.472A18.841,18.841,0,0,1,169.913,3.6a20.128,20.128,0,0,1,19,3.53l.478.389c3.8,2.912,7.994,8.061,11.185,13.736,8.111,14.635,19.866,14.274,19.983,14.281l.112,0,.112.009a7.58,7.58,0,0,0,5.542-1.8,7.868,7.868,0,0,0,2.738-5.407,5.908,5.908,0,0,0-5.279-6.378,4.1,4.1,0,0,0-3.187,1.206,3.932,3.932,0,0,0-1.291,4.155,3.1,3.1,0,0,0,2.642,2.051l-.288,3.564a6.685,6.685,0,0,1-5.719-4.4A7.446,7.446,0,0,1,218.1,20.6a7.708,7.708,0,0,1,6-2.209A9.5,9.5,0,0,1,232.628,28.6a11.41,11.41,0,0,1-3.983,7.852A11.107,11.107,0,0,1,221.4,39.14" transform="translate(201.937 3.351)" fill="#fff"/><path d="M199.531,39.14a11.113,11.113,0,0,1-7.243-2.683,11.4,11.4,0,0,1-3.981-7.852,9.494,9.494,0,0,1,8.525-10.217,7.738,7.738,0,0,1,6,2.209,7.444,7.444,0,0,1,2.161,7.93,6.678,6.678,0,0,1-5.719,4.4l-.286-3.564a3.1,3.1,0,0,0,2.64-2.051,3.925,3.925,0,0,0-1.293-4.155,4.122,4.122,0,0,0-3.184-1.206,5.909,5.909,0,0,0-5.279,6.378,7.861,7.861,0,0,0,2.74,5.407,7.542,7.542,0,0,0,5.54,1.8l.112-.009.112,0c.478,0,11.932.25,19.976-14.269,3.2-5.687,7.4-10.835,11.236-13.779l.435-.357a20.133,20.133,0,0,1,19-3.53,18.841,18.841,0,0,1,12.644,13.243c.126.483.24.973.337,1.47a17,17,0,0,1-3.265,13.562c-4.251,5.664-10.293,8.235-16.162,6.872A14.249,14.249,0,0,1,233.847,27.5a11.617,11.617,0,0,1,2.125-9.029c2.875-3.906,7.012-5.684,11.053-4.769a9.752,9.752,0,0,1,7.394,7.715,8.214,8.214,0,0,1-6.408,9.613l-.694-3.509a4.628,4.628,0,0,0,3.585-5.432,6.175,6.175,0,0,0-4.67-4.9c-2.649-.6-5.343.636-7.381,3.4a8.056,8.056,0,0,0-1.493,6.236,10.675,10.675,0,0,0,8.019,8.429c4.517,1.048,9.07-.971,12.5-5.535a13.464,13.464,0,0,0,2.612-10.73q-.12-.625-.282-1.234A15.322,15.322,0,0,0,249.916,7a16.562,16.562,0,0,0-15.634,2.9l-.476.387c-3.461,2.66-7.406,7.52-10.332,12.719-8.809,15.9-21.652,16.149-23.133,16.1-.272.021-.542.03-.81.03" transform="translate(242.742 3.351)" fill="#fff"/><path d="M192.374,22.552a5.711,5.711,0,0,1-5.687-4.791v0c-1.28-6.6,3.949-15,4.173-15.359L192.374,0l1.511,2.4c.227.355,5.455,8.754,4.176,15.361a5.715,5.715,0,0,1-5.687,4.791M190.2,17.078a2.194,2.194,0,0,0,4.347,0c.623-3.207-.9-7.275-2.173-9.947C191.1,9.8,189.579,13.871,190.2,17.078Z" transform="translate(240.433 0)" fill="#fff"/><path d="M375.245,18.568a11.158,11.158,0,0,1-2.184-.206,5.748,5.748,0,0,1-4.73-5.751,5.748,5.748,0,0,1,4.73-5.751c6.526-1.312,14.812,4.022,15.16,4.251l2.3,1.5-2.3,1.5c-.309.2-6.92,4.46-12.976,4.46m-1.481-8.2a2.2,2.2,0,0,0-1.854,2.243,2.2,2.2,0,0,0,1.854,2.241c3,.6,7.008-.865,9.814-2.241-2.8-1.378-6.815-2.843-9.814-2.243" transform="translate(474.882 8.578)" fill="#fff"/><path d="M384.027,21.275c-.144,0-.288,0-.435-.014h-.021c-1.122,0-7.731-.355-12.223-8.463a21.15,21.15,0,0,0-4.865-6.014l-.279-.224a7.331,7.331,0,0,0-6.914-1.282,6.719,6.719,0,0,0-4.514,4.716c-.048.183-.092.366-.126.549a5.793,5.793,0,0,0,1.133,4.617c1.474,1.966,3.4,2.846,5.279,2.411a4.393,4.393,0,0,0,3.3-3.475,3.09,3.09,0,0,0-.581-2.392,2.7,2.7,0,0,0-2.738-1.346,2.165,2.165,0,0,0-1.635,1.722,1.4,1.4,0,0,0,1.069,1.646l-.692,3.509a4.983,4.983,0,0,1-3.892-5.824,5.748,5.748,0,0,1,4.357-4.542,6.219,6.219,0,0,1,6.41,2.715,6.655,6.655,0,0,1,1.213,5.183,7.974,7.974,0,0,1-6,6.291c-3.276.755-6.616-.643-8.947-3.748a9.454,9.454,0,0,1-1.783-7.445c.05-.268.11-.533.183-.794a10.36,10.36,0,0,1,6.866-7.2,10.9,10.9,0,0,1,10.276,1.909l.238.195a24.477,24.477,0,0,1,5.769,7.074c2.53,4.569,5.758,5.993,7.614,6.435a4.242,4.242,0,0,1-1.619-2.076,4.567,4.567,0,0,1,1.291-4.888,4.737,4.737,0,0,1,3.686-1.348,5.622,5.622,0,0,1,5.052,6.039,6.559,6.559,0,0,1-2.289,4.51,6.411,6.411,0,0,1-4.18,1.55m1.03-8.539a1.209,1.209,0,0,0-.8.348,1.1,1.1,0,0,0-.424,1.115.634.634,0,0,0,.536.424l-.248,3.075a2.866,2.866,0,0,0,1.763-.691,3,3,0,0,0,1.044-2.07,2.027,2.027,0,0,0-1.8-2.2.665.665,0,0,0-.069,0" transform="translate(452.508 1.721)" fill="#fff"/><path d="M361.588,28.419a10.955,10.955,0,0,1-3.4-.54,10.355,10.355,0,0,1-6.866-7.2c-.071-.259-.133-.524-.183-.8a9.44,9.44,0,0,1,1.783-7.438c2.335-3.1,5.675-4.505,8.947-3.748a7.965,7.965,0,0,1,6,6.289,6.663,6.663,0,0,1-1.213,5.185,6.215,6.215,0,0,1-6.41,2.711,5.74,5.74,0,0,1-4.357-4.537,4.986,4.986,0,0,1,3.892-5.826l.694,3.509a1.4,1.4,0,0,0-1.071,1.646,2.165,2.165,0,0,0,1.635,1.722,2.7,2.7,0,0,0,2.738-1.346,3.076,3.076,0,0,0,.581-2.39,4.39,4.39,0,0,0-3.3-3.477c-1.879-.433-3.8.446-5.279,2.411a5.79,5.79,0,0,0-1.133,4.615c.036.188.078.369.126.547a6.713,6.713,0,0,0,4.514,4.72,7.334,7.334,0,0,0,6.916-1.282l.234-.192a21.171,21.171,0,0,0,4.915-6.055c4.515-8.152,11.165-8.393,12.239-8.454a6.373,6.373,0,0,1,4.613,1.536,6.553,6.553,0,0,1,2.289,4.51,5.622,5.622,0,0,1-5.05,6.041,4.732,4.732,0,0,1-3.688-1.351,4.577,4.577,0,0,1-1.291-4.888,4.246,4.246,0,0,1,1.623-2.079c-1.85.44-5.08,1.857-7.612,6.426a24.524,24.524,0,0,1-5.817,7.117l-.195.16a10.885,10.885,0,0,1-6.879,2.452m22.533-16.361.248,3.075a.634.634,0,0,0-.536.424,1.093,1.093,0,0,0,.426,1.115,1.169,1.169,0,0,0,.87.346,2.028,2.028,0,0,0,1.8-2.2,3.015,3.015,0,0,0-1.044-2.07,2.877,2.877,0,0,0-1.765-.691" transform="translate(452.508 10.929)" fill="#fff"/><rect width="307.043" height="3.576" transform="translate(505.05 19.415)" fill="#fff"/><path d="M15.281,18.568c-6.055,0-12.669-4.256-12.978-4.457L0,12.611l2.3-1.5c.348-.229,8.619-5.563,15.162-4.251a5.748,5.748,0,0,1,4.727,5.751,5.748,5.748,0,0,1-4.727,5.751,11.175,11.175,0,0,1-2.184.206M6.943,12.609c2.807,1.378,6.822,2.841,9.819,2.243a2.2,2.2,0,0,0,1.854-2.241,2.2,2.2,0,0,0-1.854-2.243c-3.01-.6-7.017.863-9.819,2.241" transform="translate(0 8.578)" fill="#fff"/><path d="M16.264,21.275a6.41,6.41,0,0,1-4.178-1.548,6.561,6.561,0,0,1-2.292-4.512,5.62,5.62,0,0,1,5.052-6.039,4.806,4.806,0,0,1,3.686,1.348,4.568,4.568,0,0,1,1.291,4.888A4.246,4.246,0,0,1,18.2,17.491c1.852-.44,5.082-1.857,7.614-6.426A24.451,24.451,0,0,1,31.63,3.947l.195-.16A10.89,10.89,0,0,1,42.1,1.875a10.371,10.371,0,0,1,6.868,7.2c.069.261.128.522.181.788a9.452,9.452,0,0,1-1.783,7.449c-2.33,3.1-5.673,4.5-8.949,3.748a7.975,7.975,0,0,1-6-6.291,6.656,6.656,0,0,1,1.213-5.183,6.227,6.227,0,0,1,6.41-2.715A5.748,5.748,0,0,1,44.4,11.41a4.981,4.981,0,0,1-3.892,5.824l-.691-3.509a1.4,1.4,0,0,0,1.069-1.644,2.168,2.168,0,0,0-1.632-1.724A2.7,2.7,0,0,0,36.508,11.7a3.1,3.1,0,0,0-.579,2.392,4.394,4.394,0,0,0,3.3,3.475c1.877.433,3.8-.442,5.281-2.411a5.788,5.788,0,0,0,1.131-4.615c-.034-.183-.078-.371-.126-.554A6.718,6.718,0,0,0,41,5.277a7.327,7.327,0,0,0-6.914,1.282l-.236.192a21.192,21.192,0,0,0-4.913,6.057C24.421,20.961,17.823,21.3,16.7,21.261q-.216.014-.433.014m-1.03-8.539c-.025,0-.048,0-.071,0a2.028,2.028,0,0,0-1.8,2.2,3.01,3.01,0,0,0,1.046,2.07,2.858,2.858,0,0,0,1.763.691l-.247-3.075a.631.631,0,0,0,.536-.424,1.092,1.092,0,0,0-.424-1.115,1.209,1.209,0,0,0-.8-.348" transform="translate(12.606 1.721)" fill="#fff"/><path d="M38.7,28.418a10.87,10.87,0,0,1-6.875-2.45l-.24-.195A24.48,24.48,0,0,1,25.819,18.7c-2.532-4.569-5.755-5.991-7.612-6.433a4.262,4.262,0,0,1,1.619,2.074,4.584,4.584,0,0,1-1.289,4.888,4.782,4.782,0,0,1-3.693,1.351,5.626,5.626,0,0,1-5.05-6.041,6.556,6.556,0,0,1,2.292-4.512A6.4,6.4,0,0,1,16.7,8.492h.025c1.117,0,7.731.355,12.22,8.463a21.193,21.193,0,0,0,4.865,6.014l.279.227A7.33,7.33,0,0,0,41,24.476a6.722,6.722,0,0,0,4.514-4.718c.048-.179.087-.364.126-.552a5.779,5.779,0,0,0-1.135-4.613c-1.477-1.964-3.4-2.852-5.279-2.411a4.393,4.393,0,0,0-3.3,3.477,3.076,3.076,0,0,0,.581,2.39A2.7,2.7,0,0,0,39.253,19.4a2.166,2.166,0,0,0,1.63-1.722,1.4,1.4,0,0,0-1.071-1.646l.7-3.509a4.978,4.978,0,0,1,3.887,5.826,5.733,5.733,0,0,1-4.354,4.537,6.22,6.22,0,0,1-6.412-2.711,6.68,6.68,0,0,1-1.211-5.185,7.972,7.972,0,0,1,6-6.289c3.274-.755,6.618.643,8.949,3.748a9.468,9.468,0,0,1,1.788,7.442c-.055.27-.117.531-.183.788a10.361,10.361,0,0,1-6.868,7.2,10.981,10.981,0,0,1-3.4.54M16.172,12.057a2.894,2.894,0,0,0-1.767.691,3.014,3.014,0,0,0-1.042,2.07,2.027,2.027,0,0,0,1.8,2.2,1.169,1.169,0,0,0,.875-.346,1.085,1.085,0,0,0,.421-1.115.637.637,0,0,0-.536-.424Z" transform="translate(12.606 10.93)" fill="#fff"/><rect width="307.045" height="3.576" transform="translate(53.313 19.415)" fill="#fff"/></g></svg>