<svg id="Group_114" data-name="Group 114" xmlns="http://www.w3.org/2000/svg" width="20.171" height="20.157" viewBox="0 0 20.171 20.157">
  <path id="Path_335" data-name="Path 335" d="M252.821,22.27H245.8a.578.578,0,0,0-.578.578v.009h0v7.014a.578.578,0,1,0,1.156,0V24.251l4.868,4.862a.578.578,0,0,0,.817-.818l-4.876-4.869h5.635a.578.578,0,0,0,0-1.156Z" transform="translate(-245.221 -22.27)" fill="#fff"/>
  <path id="Path_336" data-name="Path 336" d="M252.821,50.019h-5.635l4.876-4.869a.578.578,0,0,0-.817-.818L246.377,49.2v-5.62a.578.578,0,1,0-1.156,0V50.6a.577.577,0,0,0,.578.578h7.022a.578.578,0,0,0,0-1.156Z" transform="translate(-245.221 -31.018)" fill="#fff"/>
  <path id="Path_337" data-name="Path 337" d="M266.549,23.426h5.634l-4.876,4.869a.578.578,0,1,0,.817.818l4.869-4.862v5.62a.578.578,0,0,0,1.156,0V22.857h0v-.009a.578.578,0,0,0-.578-.578h-7.022a.578.578,0,1,0,0,1.156Z" transform="translate(-253.978 -22.27)" fill="#fff"/>
  <path id="Path_338" data-name="Path 338" d="M274.149,50.588V43.575a.578.578,0,0,0-1.156,0v5.619l-4.869-4.861a.578.578,0,1,0-.817.818l4.876,4.868h-5.633a.578.578,0,1,0,0,1.156h7.022a.577.577,0,0,0,.578-.578v-.008Z" transform="translate(-253.978 -31.018)" fill="#fff"/>
</svg>
