<svg xmlns="http://www.w3.org/2000/svg" xmlns:xlink="http://www.w3.org/1999/xlink" width="832.588" height="855" viewBox="0 0 832.588 855"><defs><filter id="a" x="0" y="0" width="832.588" height="855" filterUnits="userSpaceOnUse"><feOffset input="SourceAlpha"/><feGaussianBlur stdDeviation="2.5" result="b"/><feFlood flood-opacity="0.443"/><feComposite operator="in" in2="b"/><feComposite in="SourceGraphic"/></filter></defs><g transform="matrix(1, 0, 0, 1, 0, 0)" filter="url(#a)"><path d="M33.015,839h0a25.8,25.8,0,0,1-11.492-2.552c-4.088-1.947-8.264-5.13-12.766-9.731a34.914,34.914,0,0,1-6.824-9.289A19.04,19.04,0,0,1,0,809.062c.014-5.417,2.284-10.608,4.912-16.619a108.792,108.792,0,0,0,5.006-13,56.966,56.966,0,0,0,2.424-16.409c0-15.873-.005-24.028-.009-31.222v-.152c0-7.65-.009-15.56-.009-31.064a181.736,181.736,0,0,1,2.333-31.2,181.744,181.744,0,0,0,2.333-31.192,282.848,282.848,0,0,0-1.49-31.212,282.823,282.823,0,0,1-1.49-31.2,96.949,96.949,0,0,0-1.577-18.523A102.875,102.875,0,0,0,8.963,544.6a102.872,102.872,0,0,1-3.469-12.674A96.958,96.958,0,0,1,3.917,513.4a64.321,64.321,0,0,1,2.419-18.517,76.89,76.89,0,0,1,5.321-12.67,76.886,76.886,0,0,0,5.321-12.67A64.319,64.319,0,0,0,19.4,451.025,110.354,110.354,0,0,0,18.015,432.5a114.562,114.562,0,0,0-3.038-12.674,114.529,114.529,0,0,1-3.038-12.674,110.367,110.367,0,0,1-1.381-18.524c0-15.607.164-23.532.322-31.2s.322-15.59.322-31.2-.27-23.527-.53-31.191v-.005c-.261-7.668-.53-15.6-.53-31.192s.517-23.527,1.017-31.2,1.018-15.6,1.018-31.2a120.988,120.988,0,0,1,3.556-31.191,121.026,121.026,0,0,0,3.557-31.2A264.665,264.665,0,0,0,17.7,107.875a264.637,264.637,0,0,1-1.592-31.186,52.522,52.522,0,0,0-2.562-16.354A91.87,91.87,0,0,0,8.307,48.013c-2.6-5.334-4.849-9.939-4.843-14.847A17.016,17.016,0,0,1,5.4,25.449a36.272,36.272,0,0,1,6.739-8.939C18.32,10.2,23.4,6.092,28.122,3.569A29.157,29.157,0,0,1,42.582,0C48.777,0,55.62,1.437,65.091,3.426l.013,0c2.481.521,5.047,1.06,7.833,1.622,9.318,1.878,16.141,2.716,22.124,2.716a95.985,95.985,0,0,0,12.521-1,179.526,179.526,0,0,1,24.729-1.614,58.151,58.151,0,0,1,10.149.824,44.08,44.08,0,0,1,8,2.173,67.876,67.876,0,0,1,12.416,6.595,67.887,67.887,0,0,0,12.415,6.594,44.069,44.069,0,0,0,8,2.173,58.113,58.113,0,0,0,10.145.824,61.955,61.955,0,0,0,18.152-2.416A74.6,74.6,0,0,0,224,16.609a74.646,74.646,0,0,1,12.42-5.314,61.962,61.962,0,0,1,18.152-2.415A265.9,265.9,0,0,1,285.137,10.4,265.9,265.9,0,0,0,315.7,11.92c15.272,0,23.037-.553,30.546-1.088S361.522,9.744,376.8,9.744s23.049-.431,30.561-.848,15.28-.848,30.557-.848a80.893,80.893,0,0,1,18.15,1.824,88.966,88.966,0,0,1,12.417,4.013A88.959,88.959,0,0,0,480.9,17.9a80.834,80.834,0,0,0,18.141,1.824A280.777,280.777,0,0,1,529.6,21.159,280.794,280.794,0,0,0,560.165,22.6,64.944,64.944,0,0,0,578.307,20.3a76.691,76.691,0,0,0,12.414-5.048,76.728,76.728,0,0,1,12.417-5.05,64.981,64.981,0,0,1,18.15-2.3A291.567,291.567,0,0,0,651.85,6.525,291.54,291.54,0,0,1,682.4,5.14c15.3,0,23.06-.048,30.562-.094s15.274-.094,30.552-.094a138.093,138.093,0,0,0,22.571-2.065,83.574,83.574,0,0,1,12.489-1.334,26.558,26.558,0,0,1,12.006,2.68c4.241,2.055,8.691,5.5,13.606,10.516,7,7.152,10.694,13.165,11.977,19.5,1.193,5.889.246,11.568-.954,18.758a134.376,134.376,0,0,0-2.335,23.738A97.339,97.339,0,0,1,811.3,95.277a103.177,103.177,0,0,1-3.459,12.682,103.24,103.24,0,0,0-3.459,12.682,97.338,97.338,0,0,0-1.572,18.535,133.468,133.468,0,0,1-3.209,31.2,133.486,133.486,0,0,0-3.21,31.2,247.043,247.043,0,0,0,1.708,31.2,247.1,247.1,0,0,1,1.708,31.207c0,15.595.337,23.523.664,31.191s.664,15.6.664,31.2a78.481,78.481,0,0,0,1.962,18.521,87.512,87.512,0,0,0,4.314,12.668,87.543,87.543,0,0,1,4.316,12.672,78.451,78.451,0,0,1,1.961,18.514,113.861,113.861,0,0,1-1.338,18.526,117.683,117.683,0,0,1-2.942,12.671,117.7,117.7,0,0,0-2.944,12.678,113.866,113.866,0,0,0-1.337,18.523,182.126,182.126,0,0,0,2.328,31.2,182.163,182.163,0,0,1,2.328,31.2c0,15.593.362,23.52.712,31.186s.712,15.6.712,31.2a157.243,157.243,0,0,1-2.708,31.2,157.2,157.2,0,0,0-2.708,31.2,91.5,91.5,0,0,1-1.673,18.52,98.258,98.258,0,0,1-3.681,12.672,98.247,98.247,0,0,0-3.681,12.672,91.508,91.508,0,0,0-1.673,18.52,69.576,69.576,0,0,0,2.226,18.521,80.67,80.67,0,0,0,4.9,12.672,80.672,80.672,0,0,1,4.9,12.672,69.581,69.581,0,0,1,2.226,18.52A116.282,116.282,0,0,0,812,786.968c1.254,6.435,2.244,11.517,1.1,16.856-1.214,5.682-4.821,11.342-11.7,18.353a44.454,44.454,0,0,1-10.672,8.461,18.659,18.659,0,0,1-8.946,2.314c-4.032,0-8.032-1.279-12.664-2.76-6.428-2.055-14.427-4.613-25.663-4.613a221.2,221.2,0,0,1-30.586-1.835A221.139,221.139,0,0,0,682.3,821.91a86.444,86.444,0,0,0-18.149,1.7,93.55,93.55,0,0,0-12.416,3.745,93.581,93.581,0,0,1-12.417,3.745,86.426,86.426,0,0,1-18.145,1.7c-15.367,0-23.094.005-30.566.01s-15.2.01-30.576.01c-15.277,0-23.044.148-30.556.292s-15.276.292-30.563.292c-15.269,0-23.033-.138-30.541-.272h-.01c-7.511-.134-15.276-.272-30.552-.272a76.308,76.308,0,0,1-18.146-1.937,85.288,85.288,0,0,1-12.415-4.262,85.285,85.285,0,0,0-12.416-4.262,76.309,76.309,0,0,0-18.146-1.937c-15.281,0-23.049.487-30.561.957s-15.28.957-30.561.957-23.042-.609-30.553-1.2-15.283-1.2-30.565-1.2-23.044-.148-30.556-.292-15.277-.292-30.567-.292a107.055,107.055,0,0,0-18.146,1.366,111.292,111.292,0,0,0-12.415,3.006,111.285,111.285,0,0,1-12.414,3.006,107.019,107.019,0,0,1-18.143,1.366,131.626,131.626,0,0,0-30.556,3.121,131.649,131.649,0,0,1-30.557,3.121,119.787,119.787,0,0,0-24.213,2.776C41.759,838.147,37.339,839,33.015,839ZM60.144,53.1a10.011,10.011,0,0,0-10,10V776.454a10.012,10.012,0,0,0,10,10H755.021a10.012,10.012,0,0,0,10-10V63.1a10.011,10.011,0,0,0-10-10Z" transform="translate(8 8)" fill="#c6b5a5" stroke="rgba(0,0,0,0)" stroke-miterlimit="10" stroke-width="1"/></g></svg>