<svg xmlns="http://www.w3.org/2000/svg" xmlns:xlink="http://www.w3.org/1999/xlink" width="484.111" height="347.917" viewBox="0 0 484.111 347.917"><defs><clipPath id="a"><rect width="484.111" height="347.917" fill="#fff"/></clipPath></defs><g opacity="0.85"><g clip-path="url(#a)"><path d="M360.258,305.818c0-11.087.273-15.33-.96-21.079a21.451,21.451,0,0,0-2.876-7.529A18.161,18.161,0,0,0,353,273.24a16.98,16.98,0,0,0-11.1-3.969,18.738,18.738,0,0,0-13.428,5.749,24.383,24.383,0,0,0-5.069,7.118,30.321,30.321,0,0,0-1.918-4.38,17.472,17.472,0,0,0-5.207-5.612,14.626,14.626,0,0,0-9.179-2.737,18.112,18.112,0,0,0-11.921,4.379,22.107,22.107,0,0,0-6.165,7.939,43.713,43.713,0,0,0-3.289-10.539c-.548-1.094-1.232-2.191-1.917-3.285L264.082,276.9a12.443,12.443,0,0,0-2.689-5.16,8.9,8.9,0,0,0-6.713-3.012,9.971,9.971,0,0,0-9.043,6.3,10.363,10.363,0,0,0-.684,4.38,13.327,13.327,0,0,0,3.836,9.171c2.055,2.053,4.248,3.148,4.933,4.243.274.411.274.547.274,1.369a9.3,9.3,0,0,1-.822,3.421,135.652,135.652,0,0,1-6.851,16.152l-1.918,3.969-9.727-20.395c-3.289-7.392-6.44-14.646-9.181-22.037-.685-2.054-1.37-4.244-2.054-6.3-3.7,1.643-7.4,3.285-11.235,4.791-3.014,1.232-6.028,2.464-9.18,3.559v4.89a14.408,14.408,0,0,0-.488-1.468c-2.74-8.076-9.316-11.634-16.441-11.634-9.59,0-15.756,6.843-18.77,10.539V259.417l.273-27.924-26.031,9.035v5.078l-1.211-7.133c-1.644.273-3.288.549-4.795.822-1.508.136-2.877.273-4.248.411-3.425.137-6.85,0-10.276.137H86.105c-3.014,0-5.891,0-8.905-.137a87.477,87.477,0,0,1-10.276-1.232l-6.3,32.3,6.3,1.643c3.836-10.4,6.3-14.919,11.783-19.847,6.165-5.476,10.961-5.337,13.427-5.476l.138,81.854-9.728.684v7.119H123.92v-7.119l-9.59-.684V247.1c3.151,0,4.384.138,6.165.821a22.4,22.4,0,0,1,6.439,3.56c6.028,4.653,9.042,11.086,10.961,16.014.549,1.5,1.1,3.148,1.644,4.654l6.3-1.37-4.139-24.4a11.962,11.962,0,0,1,3.02-.515,4.169,4.169,0,0,1,3.7,1.916c.822,1.232.959,2.875.959,5.476v76.515l-6.577.82v6.023h30.964v-6.159l-6.439-.822v-40.1c1.781-2.6,4.521-6.981,10.412-6.981a8.036,8.036,0,0,1,5.617,1.916c3.014,2.464,2.877,5.612,3.014,8.487v36.957l-6.577.684v6.16h30.828v-6.16l-6.3-.82V293.226c0-1.643,0-3.149-.138-4.654-.136-1.232-.411-2.464-.548-3.7-.108-.537-.22-1.076-.345-1.613,2.416.254,3.616.411,4.805,1.2a10.772,10.772,0,0,1,3.152,4.38c.822,1.779,1.781,3.558,2.6,5.339l4.247,9.581c2.6,5.612,5.207,11.087,8.222,16.7,2.192,4.244,4.795,8.624,7.535,12.867l.823,1.506c-2.193,3.422-4.111,6.707-7.4,9.582-.686.548-1.508,1.094-2.33,1.642-4.521-3.97-6.987-5.612-11.646-5.612-4.8,0-9.728,3.148-9.728,8.9a8.378,8.378,0,0,0,1.508,4.927c3.151,4.654,8.494,4.654,9.59,4.654,9.454,0,17.4-9.992,20.14-13.277a69.808,69.808,0,0,0,5.481-7.529,231.153,231.153,0,0,0,20.962-42.98,50.641,50.641,0,0,0,3.164-12.045c2.686-.3,3.957.221,5.546,2.054a7.765,7.765,0,0,1,1.508,5.065c.137,1.779.137,3.421.137,5.2v34.218l-6.439.822v6.159h30.69v-6.023l-6.3-.82V289.118c.822-1.368,2.876-4.79,6.85-6.159a7.673,7.673,0,0,1,3.014-.548,7.825,7.825,0,0,1,4.795,1.779c2.74,2.6,2.74,6.571,2.74,9.171v36.411l-6.439.684v6.159h30.828v-6.159l-6.439-.822c0-5.885,0-11.908-.137-17.931v-8.213c0-1.643.137-3.285.137-5.064,0-3.286-.137-6.707-.273-9.993,1.507-2.326,4.383-6.159,9.454-6.159a7.284,7.284,0,0,1,6.85,4.106c1.781,3.285,1.644,7.8,1.644,8.213.137,5.065,0,10.4,0,15.6,0,6.57,0,13.141-.137,19.575l-6.439.82v6.16H366.7v-6.022l-6.439-.822Zm57.076,9.719c-2.466,3.559-7.261,10.4-15.756,10.4a15.037,15.037,0,0,1-7.261-2.052,18.977,18.977,0,0,1-3.835-2.738c-.959-1.094-1.645-2.19-2.467-3.285a30.1,30.1,0,0,1-3.973-8.9l36.993-10.54a40.676,40.676,0,0,0-1.645-10.813,32.146,32.146,0,0,0-7.536-11.909,24.939,24.939,0,0,0-8.221-5.338,28.92,28.92,0,0,0-8.769-1.643,27.284,27.284,0,0,0-17.263,6.3,39.43,39.43,0,0,0-6.576,7.118,40.47,40.47,0,0,0-6.44,21.764c0,1.094-.273,17.246,10.414,27.512a14.957,14.957,0,0,0,1.917,1.5,22.7,22.7,0,0,0,2.877,2.191,27.166,27.166,0,0,0,13.838,3.97c7.809,0,14.523-3.97,17.4-6.16a45.288,45.288,0,0,0,9.728-11.086,13.014,13.014,0,0,1,1.37-2.328ZM384.315,284.6c1.645-4.791,4.8-7.392,7.124-8.213a10.209,10.209,0,0,1,2.74-.547c4.933,0,7.261,4.105,8.084,6.022a19.018,19.018,0,0,1,.959,6.3,15.208,15.208,0,0,1-.959,5.476c-1.233,2.6-4.521,3.969-6.988,4.654-4.247,1.233-8.358,2.191-12.467,3.149-.138-1.37-.959-10.129,1.507-16.836" transform="translate(-2.883 -11.01)" fill="#fff" fill-rule="evenodd"/><path d="M93.989,127.832l7.946-.684V120.03h-33.7l-16.3,48.592L36.034,120.166H.959v6.845l8.083.82v68.85c-.137,4.107-.274,9.719-4.384,12.046A15.074,15.074,0,0,1,0,210.1v6.844H28.772v-6.98a13.469,13.469,0,0,1-8.495-2.874c-3.426-2.875-3.836-6.707-3.836-13.689V129.475l24.936,72.546h6.85l24.525-72.957v80.211l-8.221.685V216.8h37.541v-6.98l-8.083-.685Zm55.967,27.924a4.85,4.85,0,0,1-1.1-.684c-7.946-5.886-15.07-5.886-17.674-5.749a29.713,29.713,0,0,0-14.66,3.833c-16.99,9.444-16.852,29.154-16.852,30.933,0,2.191.137,13.688,7.261,23a29.71,29.71,0,0,0,23.7,12.045,31.346,31.346,0,0,0,16.168-4.654,35.263,35.263,0,0,0,8.221-7.529c3.425-4.516,7.4-12.455,7.4-23.542a41.2,41.2,0,0,0-2.74-14.646,36.126,36.126,0,0,0-9.728-13m-13.016,53.52a7.311,7.311,0,0,1-6.439,3.012,7.129,7.129,0,0,1-6.029-2.875,11.349,11.349,0,0,1-1.1-1.642,20.8,20.8,0,0,1-1.507-2.737,48.876,48.876,0,0,1-1.782-7.8,110.043,110.043,0,0,1-.684-13.414c0-10.128,1.1-15.193,2.876-19.984a17.65,17.65,0,0,1,1.918-3.7,9.431,9.431,0,0,1,7.124-4.38c4.521-.274,7.125,3.422,8.084,5.338,2.329,4.517,3.151,12.045,3.151,22.995,0,11.772-1.507,20.4-5.617,25.186m149.223-23.406c0-12.73.136-19.3-2.33-25.323a15.8,15.8,0,0,0-4.521-6.707c-4.8-4.38-9.18-4.517-10.961-4.517-8.358,0-13.975,5.064-16.715,8.76a16.5,16.5,0,0,0-2.192,3.559,47.346,47.346,0,0,0-5.07-13.688l-20.689,9.307v5.886a20.249,20.249,0,0,1,3.289.138,5.807,5.807,0,0,1,3.562,2.737,10.458,10.458,0,0,1,1.37,5.338v38.463l-5.695.727v-2.78c-1.37.274-3.014.548-4.384-.684-2.329-2.191-2.329-5.613-2.329-8.076-.137-8.077,0-16.015,0-23.954,0-4.106-.137-8.213-.137-12.319,0-4.517.137-9.035.274-13.551l-25.347,9.307v5.886a13.647,13.647,0,0,1,2.6-.411,3.936,3.936,0,0,1,3.7,2.191c1.233,2.328,1.1,6.3,1.1,6.571v26.281c-.411.548-.685,1.231-1.1,1.779a10.84,10.84,0,0,1-8.769,5.064,7.562,7.562,0,0,1-6.713-4.106c-.959-1.643-1.1-2.875-1.233-5.886a115.256,115.256,0,0,1-.136-11.908c0-4.516-.137-8.9-.137-13.414,0-7.118.411-14.1.822-21.216l-25.21,9.307v5.886a10.241,10.241,0,0,1,2.74-.549,3.939,3.939,0,0,1,3.014,1.232c1.232,1.643,1.1,3.833,1.1,7.529,0,8.075-.548,16.152-.136,24.227.273,8.623,2.6,13.14,6.165,16.836,4.8,5.064,9.59,5.337,11.783,5.337,5.48,0,11.372-2.737,16.168-8.622a23.265,23.265,0,0,0,2.329-3.149,38.9,38.9,0,0,0,4.8,12.32l18.3-5.657v2.918h30.827v-6.023l-6.439-.957V169.032c1.508-2.053,4.8-6.433,9.864-6.433,4.521,0,6.714,3.7,7.4,5.338,1.37,3.286,1.232,6.707,1.1,13.825v28.2l-6.439.821v6.159H292.6v-6.023l-6.439-.821ZM402.5,142.341a9.966,9.966,0,0,0,7.673-3.148,11.372,11.372,0,0,0,3.562-8.76,12.131,12.131,0,0,0-7.536-11.225,8.8,8.8,0,0,0-4.247-.547,9.189,9.189,0,0,0-5.617,1.916,8.594,8.594,0,0,0-3.014,2.737,12.628,12.628,0,0,0-2.329,7.255A11.632,11.632,0,0,0,402.5,142.341M477.672,210.1V185.869c0-12.73.136-19.3-2.33-25.323a15.808,15.808,0,0,0-4.521-6.707c-4.8-4.38-9.18-4.517-10.961-4.517-8.358,0-13.975,5.064-16.715,8.76a16.492,16.492,0,0,0-2.193,3.559,47.321,47.321,0,0,0-5.069-13.688l-20.689,9.307v5.886a20.229,20.229,0,0,1,3.288.138,5.809,5.809,0,0,1,3.563,2.737,10.458,10.458,0,0,1,1.37,5.338v38.463l-6.439.821v.028l-5.293-.575c0-6.3.136-12.456.136-18.615,0-6.843-.136-13.55-.136-20.395,0-7.665.273-15.331.548-22.859l-26.306,9.033v5.75c1.781.136,4.111.136,5.892,1.916,1.507,1.5,1.918,3.011,2.055,6.023V210.1l-4.576.476-2.3-3.213a6.117,6.117,0,0,1-3.288,1.506,3.34,3.34,0,0,1-3.014-2.053,16.978,16.978,0,0,1-.685-4.79V177.793c-.137-3.97-.274-8.076-2.193-12.319a24.322,24.322,0,0,0-3.426-5.613,31.916,31.916,0,0,0-13.289-9.17,39.66,39.66,0,0,0-11.919-2.053c-.823,0-8.221,0-13.29,3.422a10.7,10.7,0,0,0-5.207,8.9,8.07,8.07,0,0,0,8.358,8.076c.959,0,4.933.137,8.495-4.654,2.466-3.422,3.562-8.9,3.7-9.171.822,0,7.4.137,10,5.886,1.37,2.737,1.644,6.022,1.644,11.908-1.917.548-3.836.958-5.755,1.642-1.233.411-2.6.958-3.973,1.507a30.873,30.873,0,0,0-3.289,1.094c-1.507.685-3.014,1.506-4.657,2.191-5.207,2.6-18.36,9.444-18.36,23.542a20.885,20.885,0,0,0,.21,2.871,10.3,10.3,0,0,1-5.513,1.647,9.461,9.461,0,0,1-4.8-1.1c-3.836-2.327-3.7-6.434-3.836-9.582V160.682h14.249v-9.17H312.915V125.094l-17.4,8.623v17.794h-7.809v9.17h7.4v36.274c0,6.57.411,10.129,1.645,13.14,1.644,3.7,6.3,8.761,14.8,8.761,7.753,0,13.787-4.02,17.6-6.807a14.436,14.436,0,0,0,1.545,2.153,17.712,17.712,0,0,0,12.468,5.612,25.958,25.958,0,0,0,14.386-4.791,42.655,42.655,0,0,0,4.8-4.243,10.352,10.352,0,0,0,1.507-1.916c.137.273,1.781,5.886,5.755,8.486a13.988,13.988,0,0,0,6.851,2.19c5.069,0,8.22-3.148,10.549-5.475l.3-.3V216.8h29.681v.137H447.8v-6.023l-6.439-.957V169.032c1.508-2.053,4.8-6.433,9.864-6.433,4.521,0,6.714,3.7,7.4,5.338,1.37,3.286,1.233,6.707,1.1,13.825v28.2l-6.439.821v6.159h30.828v-6.023Zm-117.391-5.749A9.318,9.318,0,0,1,352.745,209a7.936,7.936,0,0,1-5.342-2.191c-3.152-3.148-3.29-7.8-3.29-8.486a16.874,16.874,0,0,1,6.3-12.867c.958-.685,1.917-1.37,2.74-1.916,2.739-1.78,3.973-2.464,9.18-4.243l.137,10.95c-.274,6.98-.274,10.813-2.193,14.1" transform="translate(0 -5.64)" fill="#fff" fill-rule="evenodd"/><path d="M250.9,8.351H219.938v6.98c1.37.136,10.961.273,10.961,9.034,0,3.285-2.74,14.646-5.48,25.46L217.06,84.319,199.249,7.255,177.6,13.141l4.659,16.836L169.107,83.086,154.858,16.152l7.809-.821V8.624h-37.4v6.707l7.4.821,20.689,90.2,23.429-.548-3.426-10.676L186.233,44.76l14.523,61.732,23.566-.685-2.877-9.171,16.3-67.344c1.1-4.243,1.644-5.748,3.152-8.075,2.33-3.7,4.384-5.065,10-6.023Zm11.61,22.311a9.969,9.969,0,0,0,7.673-3.149,11.372,11.372,0,0,0,3.562-8.76A12.128,12.128,0,0,0,266.212,7.53a8.818,8.818,0,0,0-4.248-.549A9.188,9.188,0,0,0,256.346,8.9a8.586,8.586,0,0,0-3.015,2.738A12.623,12.623,0,0,0,251,18.89a11.633,11.633,0,0,0,11.508,11.772M301.1,22.039c0-7.392.274-14.647.549-22.038L274.792,9.309v6.022c.549-.137,6.44-1.916,7.81,3.558a24.626,24.626,0,0,1,.41,5.476V98.554l-5.085.54-6.236-.677c0-6.3.136-12.456.136-18.616,0-6.843-.136-13.55-.136-20.395,0-7.665.273-15.33.548-22.859l-26.306,9.035v5.749c1.781.136,4.111.136,5.892,1.916,1.507,1.506,1.918,3.011,2.055,6.022V98.417L247.3,99.1v6.023h29.269v.137H307.4V99.239l-6.3-.685Zm66.537,71.314c-1.918-2.327-1.644-4.655-1.918-9.445,0-17.246.137-34.494.137-51.739,0-5.886-.273-11.772-.137-17.657,0-4.792.274-9.583.548-14.372L340.1,8.9V14.51a20.406,20.406,0,0,1,2.877-.273,4.435,4.435,0,0,1,4.111,2.053c1.1,1.642.959,3.422,1.1,6.843V42.707c-3.151-2.326-6.714-5.064-13.289-5.064a24.956,24.956,0,0,0-11.921,3.012c-1.37.821-3.151,2.053-3.7,2.464a30.335,30.335,0,0,0-8.084,9.992,46.182,46.182,0,0,0-5.343,21.764,45.251,45.251,0,0,0,3.974,18.478,30.617,30.617,0,0,0,5.069,7.665,20.063,20.063,0,0,0,15.209,6.433,16.737,16.737,0,0,0,3.426-.273,27.229,27.229,0,0,0,5.342-1.78c2.741-1.369,6.3-3.421,10.139-9.582a33.717,33.717,0,0,0,4.8,11.635l19.317-5.749V96.226a7.365,7.365,0,0,1-5.48-2.874m-19.729-5.2a16.6,16.6,0,0,1-2.6,3.833,9.481,9.481,0,0,1-6.714,2.874c-6.577,0-9.865-6.3-10.687-8.076-2.876-6.3-2.74-15.33-2.74-16.426,0-10.676,3.014-19.162,7.673-22.859a8.893,8.893,0,0,1,5.48-2.053c5.755,0,8.358,4.243,9.591,6.707Z" transform="translate(-5.957 0)" fill="#fff" fill-rule="evenodd"/></g></g></svg>