<svg xmlns="http://www.w3.org/2000/svg" width="18.551" height="25.246" viewBox="0 0 18.551 25.246"><path d="M.012,2.839c.057-.633.366-1.013.87-1.063C4.713,1.669,10.838,1.054,18.5,0c.429-.043.68.21.623.843s-.259.932-.744,1.051A99.122,99.122,0,0,1,.61,3.964C.137,3.941-.051,3.542.012,2.839Z" transform="translate(18.551 3.433) rotate(150)" fill="#363636"/><path d="M.012,2.839c.057-.633.366-1.013.87-1.063C4.713,1.669,10.838,1.054,18.5,0c.429-.043.68.21.623.843s-.259.932-.744,1.051A99.122,99.122,0,0,1,.61,3.964C.137,3.941-.051,3.542.012,2.839Z" transform="matrix(-0.719, -0.695, 0.695, -0.719, 14.78, 25.246)" fill="#363636"/></svg>