<svg xmlns="http://www.w3.org/2000/svg" width="875.623" height="629.284" viewBox="0 0 875.623 629.284"><path d="M721.13,569.619a27.206,27.206,0,0,1-13.136-3.712,34.421,34.421,0,0,1-6.937-4.953c-1.735-1.979-2.975-3.96-4.46-5.942-3.966-5.942-5.206-9.9-7.187-16.092l66.91-19.063c-.5-9.9-1.487-14.607-2.973-19.558a58.185,58.185,0,0,0-13.63-21.541,45.148,45.148,0,0,0-14.869-9.654,52.3,52.3,0,0,0-15.861-2.972,49.349,49.349,0,0,0-31.224,11.389A71.325,71.325,0,0,0,665.869,490.4c-4.464,6.436-11.651,21.293-11.651,39.365,0,1.979-.493,31.193,18.838,49.762a26.991,26.991,0,0,0,3.468,2.724,40.952,40.952,0,0,0,5.2,3.961c10.407,6.684,22.054,7.18,25.027,7.18,14.126,0,26.27-7.18,31.474-11.141,9.911-7.676,15.861-17.578,17.592-20.054a23.588,23.588,0,0,1,2.481-4.209l-8.674-7.178c-4.462,6.436-13.136,18.814-28.5,18.814m-31.224-74.767c2.972-8.665,8.674-13.37,12.884-14.855a18.47,18.47,0,0,1,4.958-.989c8.92,0,13.134,7.425,14.622,10.893,1.731,4.457,1.731,10.15,1.731,11.387,0,.5,0,6.19-1.731,9.9-2.231,4.7-8.179,7.178-12.639,8.417-7.683,2.229-15.117,3.962-22.55,5.7-.252-2.477-1.737-18.321,2.725-30.452M558.77,182.712c5.451,5.692,13.875,11.635,27.5,11.635a30.1,30.1,0,0,0,6.2-.5,49.05,49.05,0,0,0,9.663-3.218c4.958-2.476,11.4-6.188,18.34-17.33,2.973,11.883,4.708,14.112,8.674,21.045l34.938-10.4v-9.9a13.314,13.314,0,0,1-9.909-5.2c-3.471-4.21-2.975-8.419-3.471-17.084,0-31.195.246-62.389.246-93.582,0-10.646-.493-21.293-.246-31.937,0-8.667.5-17.332.992-26L604.365,16.093V26.245a36.986,36.986,0,0,1,5.206-.5c4.214,0,6.443,1.981,7.434,3.714,1.984,2.97,1.735,6.188,1.984,12.378v35.4c-5.7-4.207-12.145-9.16-24.039-9.16a45.124,45.124,0,0,0-21.56,5.447c-2.479,1.485-5.7,3.712-6.691,4.457-3.718,2.97-9.168,7.921-14.621,18.073a83.5,83.5,0,0,0-9.666,39.364,81.851,81.851,0,0,0,7.187,33.424,55.331,55.331,0,0,0,9.17,13.864m18.586-55.459c0-19.31,5.451-34.659,13.876-41.345a16.082,16.082,0,0,1,9.911-3.712c10.408,0,15.118,7.675,17.351,12.131v65.111a30.071,30.071,0,0,1-4.71,6.932,17.152,17.152,0,0,1-12.145,5.2c-11.9,0-17.842-11.387-19.329-14.607-5.2-11.389-4.955-27.727-4.955-29.71M863.978,369.8v-43.82c0-23.026.246-34.907-4.215-45.8a28.592,28.592,0,0,0-8.178-12.131c-8.672-7.923-16.6-8.169-19.823-8.169-15.118,0-25.277,9.16-30.235,15.844a29.964,29.964,0,0,0-3.966,6.438c-3.22-13.616-5.2-16.834-9.167-24.759L750.972,274.24v10.645a36.6,36.6,0,0,1,5.949.25,10.5,10.5,0,0,1,6.443,4.951,18.9,18.9,0,0,1,2.479,9.654v69.57L754.2,370.794v.05l-9.573-1.04c0-11.387.246-22.529.246-33.67,0-12.378-.246-24.509-.246-36.888,0-13.864.493-27.729.989-41.345L698.03,274.24v10.4c3.221.246,7.437.246,10.658,3.466,2.725,2.722,3.469,5.447,3.716,10.894v70.8l-8.274.861-4.157-5.812c-.5.494-3.469,2.724-5.948,2.724a6.046,6.046,0,0,1-5.454-3.714c-.742-1.733-.989-4.7-1.235-8.663V311.376c-.25-7.18-.5-14.607-3.966-22.281a44.039,44.039,0,0,0-6.2-10.152,57.728,57.728,0,0,0-24.037-16.586,71.73,71.73,0,0,0-21.558-3.714c-1.487,0-14.87,0-24.04,6.19-3.962,2.475-9.418,7.923-9.418,16.092,0,8.665,6.943,14.607,15.118,14.607,1.736,0,8.924.248,15.365-8.417,4.46-6.19,6.443-16.093,6.691-16.588,1.488,0,13.38.248,18.092,10.646,2.475,4.951,2.972,10.893,2.972,21.539-3.468.991-6.937,1.733-10.409,2.972-2.229.742-4.708,1.731-7.187,2.724a56.035,56.035,0,0,0-5.945,1.979c-2.725,1.239-5.454,2.724-8.426,3.962-9.416,4.7-33.207,17.082-33.207,42.583a37.77,37.77,0,0,0,.379,5.191c-3.48,1.928-6.042,2.979-9.973,2.979a17.082,17.082,0,0,1-8.672-1.981c-6.943-4.209-6.691-11.637-6.943-17.33V280.428h25.773V263.841H565.975V216.059l-31.47,15.6v32.185H520.382v16.586h13.38v65.609c0,11.883.742,18.321,2.973,23.766,2.973,6.686,11.4,15.845,26.764,15.845,14.021,0,24.934-7.272,31.827-12.312a26.217,26.217,0,0,0,2.792,3.9,32.039,32.039,0,0,0,22.552,10.15c11.4,0,21.808-5.447,26.023-8.665a77.3,77.3,0,0,0,8.674-7.675,18.945,18.945,0,0,0,2.725-3.466c.246.494,3.221,10.646,10.407,15.349a25.291,25.291,0,0,0,12.391,3.96c9.17,0,14.867-5.692,19.082-9.9l.536-.538v5.489H754.2v.248h55.757V371.29l-11.645-1.733V295.53c2.727-3.712,8.674-11.635,17.84-11.635,8.179,0,12.145,6.684,13.384,9.656,2.476,5.942,2.231,12.131,1.983,25v51l-11.647,1.485v11.141h55.757V371.29Zm-212.33-10.4a16.852,16.852,0,0,1-13.63,8.419,14.354,14.354,0,0,1-9.663-3.962c-5.7-5.694-5.949-14.111-5.949-15.349,0-11.141,6.195-18.815,11.4-23.272,1.737-1.239,3.469-2.475,4.956-3.466,4.958-3.22,7.187-4.457,16.607-7.675l.246,19.806c-.5,12.626-.5,19.558-3.966,25.5m76.369-112.15a18.033,18.033,0,0,0,13.878-5.7c3.469-3.218,6.441-8.169,6.441-15.844a21.941,21.941,0,0,0-13.628-20.3,15.928,15.928,0,0,0-7.681-.989c-2.231,0-5.452.248-10.161,3.466a15.526,15.526,0,0,0-5.452,4.951,22.842,22.842,0,0,0-4.214,13.122,21.042,21.042,0,0,0,20.817,21.293m-214.64,32.926A28.561,28.561,0,0,0,505.2,268.05c-8.674-7.923-16.605-8.169-19.825-8.169-15.115,0-25.279,9.16-30.233,15.844a29.852,29.852,0,0,0-3.962,6.438c-3.223-13.616-5.206-16.834-9.172-24.759L404.585,274.24v10.645a36.67,36.67,0,0,1,5.95.25,10.509,10.509,0,0,1,6.443,4.951,18.926,18.926,0,0,1,2.475,9.654v69.57l-10.3,1.314v-5.029c-2.477.5-5.454.991-7.931-1.237-4.214-3.962-4.214-10.152-4.214-14.607-.245-14.609,0-28.967,0-43.326,0-7.427-.245-14.855-.245-22.281,0-8.171.245-16.342.494-24.511l-45.846,16.836v10.645a24.642,24.642,0,0,1,4.708-.743,7.116,7.116,0,0,1,6.691,3.961c2.231,4.21,1.983,11.389,1.983,11.885v47.534c-.742.991-1.24,2.227-1.983,3.218-5.7,8.417-13.63,9.16-15.861,9.16a13.674,13.674,0,0,1-12.14-7.427c-1.738-2.972-1.983-5.2-2.233-10.646a208.929,208.929,0,0,1-.248-21.539c0-8.169-.246-16.092-.246-24.263,0-12.874.744-25.5,1.487-38.373l-45.6,16.834v10.646a18.475,18.475,0,0,1,4.956-.991,7.127,7.127,0,0,1,5.451,2.227c2.231,2.972,1.983,6.932,1.983,13.618,0,14.605-.992,29.214-.246,43.82.494,15.6,4.708,23.766,11.149,30.452,8.674,9.16,17.346,9.656,21.312,9.656,9.914,0,20.569-4.951,29.245-15.6a42.517,42.517,0,0,0,4.212-5.7c2.973,12.379,4.956,15.349,8.672,22.283l33.1-10.231v5.278h55.759V371.29l-11.647-1.733V295.53c2.725-3.712,8.674-11.635,17.844-11.635,8.176,0,12.142,6.684,13.382,9.656,2.479,5.942,2.229,12.131,1.981,25v51l-11.647,1.485v11.141h55.757V371.29L517.589,369.8v-43.82c0-23.026.246-34.907-4.212-45.8m-13-246.016a44.335,44.335,0,0,1,.746,9.9V178.256l-9.2.977-11.279-1.225c0-11.389.246-22.529.246-33.672,0-12.378-.246-24.509-.246-36.888,0-13.864.493-27.727.989-41.345L434.052,82.444v10.4c3.22.246,7.433.246,10.657,3.464,2.725,2.724,3.468,5.447,3.714,10.894v70.806l-11.894,1.237v10.894h52.94v.248h55.757V179.494l-11.4-1.239V39.861c0-13.37.5-26.492.991-39.86L486.248,16.837V27.73c.992-.248,11.649-3.466,14.124,6.436M131.59,368.318l-14.87,1.239v12.378h67.9V369.309L170,368.07V221.01l14.374-1.237V206.9H123.411L93.922,294.788,65.175,207.146H1.736v12.381l14.621,1.483V345.54c-.248,7.428-.5,17.578-7.931,21.789A27.241,27.241,0,0,1,0,369.8v12.379H52.041V369.557c-1.487,0-9.168,0-15.365-5.2s-6.939-12.131-6.939-24.759V223.981L74.841,355.2h12.39l44.36-131.959Zm514.8,164.907c0-20.052.5-27.727-1.737-38.125-1.485-6.684-3.218-10.646-5.2-13.618a32.888,32.888,0,0,0-6.2-7.18,30.711,30.711,0,0,0-20.071-7.178c-8.426,0-16.6,2.972-24.287,10.4-4.708,4.7-6.441,7.676-9.167,12.874-1.49-3.712-2.479-6.436-3.471-7.921a31.572,31.572,0,0,0-9.418-10.152c-3.714-2.724-8.674-4.951-16.6-4.951-10.407,0-16.851,4.209-21.56,7.923-3.966,3.218-7.187,6.682-11.151,14.359a79.206,79.206,0,0,0-5.948-19.063c-.992-1.979-2.229-3.962-3.47-5.942l-35.677,16.266a22.5,22.5,0,0,0-4.861-9.334c-2.972-2.97-5.947-5.2-12.143-5.447a18.035,18.035,0,0,0-16.355,11.389,18.743,18.743,0,0,0-1.237,7.923,24.113,24.113,0,0,0,6.937,16.588c3.719,3.712,7.685,5.694,8.924,7.675.494.742.494.989.494,2.475a16.775,16.775,0,0,1-1.488,6.188,245.335,245.335,0,0,1-12.39,29.215l-3.468,7.179-17.6-36.888c-5.945-13.368-11.647-26.49-16.6-39.858-1.237-3.716-2.477-7.675-3.714-11.39-6.693,2.972-13.384,5.942-20.323,8.667-5.451,2.227-10.9,4.455-16.6,6.436v8.844a26.889,26.889,0,0,0-.88-2.655c-4.956-14.607-16.852-21.043-29.739-21.043-17.346,0-28.5,12.378-33.949,19.062V449.3l.494-50.506-47.081,16.342v9.185l-2.191-12.9c-2.973.5-5.947.992-8.672,1.487-2.725.246-5.206.494-7.682.742-6.2.248-12.39,0-18.586.248H150.528c-5.452,0-10.655,0-16.107-.248a158.172,158.172,0,0,1-18.586-2.229l-11.4,58.427,11.4,2.972c6.939-18.815,11.4-26.984,21.312-35.9,11.151-9.9,19.823-9.654,24.285-9.9l.248,148.052L144.085,576.3v12.875h74.839V576.3l-17.348-1.235V427.016c5.7,0,7.931.25,11.153,1.485a40.5,40.5,0,0,1,11.644,6.439c10.906,8.415,16.357,20.052,19.828,28.966.989,2.722,1.983,5.693,2.972,8.417l11.4-2.477-7.489-44.125a21.642,21.642,0,0,1,5.464-.932,7.546,7.546,0,0,1,6.691,3.466c1.485,2.229,1.733,5.2,1.733,9.9V576.553l-11.9,1.483v10.894h56.007V577.79L297.438,576.3V503.765c3.223-4.7,8.179-12.627,18.833-12.627a14.525,14.525,0,0,1,10.16,3.468c5.454,4.455,5.206,10.148,5.454,15.349V576.8l-11.9,1.237v11.142h55.757V578.036l-11.4-1.483v-66.1c0-2.972,0-5.7-.246-8.417-.248-2.229-.742-4.457-.991-6.686-.2-.972-.4-1.947-.624-2.918,4.367.46,6.541.744,8.691,2.178,3.718,2.724,5.451,7.427,5.7,7.921,1.485,3.218,3.221,6.436,4.706,9.656l7.682,17.33c4.712,10.15,9.416,20.054,14.87,30.2,3.966,7.676,8.672,15.6,13.63,23.274l1.485,2.724c-3.962,6.19-7.433,12.131-13.382,17.33-1.237.991-2.724,1.979-4.21,2.97-8.178-7.18-12.638-10.15-21.065-10.15-8.672,0-17.594,5.693-17.594,16.093a15.124,15.124,0,0,0,2.727,8.911c5.7,8.417,15.361,8.417,17.346,8.417,17.1,0,31.47-18.073,36.427-24.015a126.028,126.028,0,0,0,9.912-13.618c7.437-11.387,25.775-43.572,37.917-77.739,3.638-9.942,5.2-16.629,5.725-21.785,4.856-.538,7.158.4,10.031,3.714A14.052,14.052,0,0,1,485.809,505c.248,3.218.248,6.188.248,9.408V576.3l-11.645,1.487v11.141h55.511V578.036l-11.4-1.483V503.021c1.49-2.474,5.2-8.663,12.391-11.141a13.885,13.885,0,0,1,5.452-.991c.746,0,5.451.248,8.672,3.218,4.958,4.706,4.958,11.885,4.958,16.588v65.857l-11.649,1.237v11.141H594.1V577.79L582.457,576.3c0-10.645,0-21.539-.25-32.432V529.017c0-2.972.25-5.942.25-9.16,0-5.943-.25-12.131-.5-18.073,2.725-4.209,7.93-11.141,17.1-11.141a13.18,13.18,0,0,1,12.391,7.427c3.22,5.942,2.972,14.112,2.972,14.855.248,9.161,0,18.815,0,28.223,0,11.885,0,23.768-.246,35.4l-11.649,1.483v11.142h55.512V578.286L646.392,576.8ZM464.037,55.458a18.026,18.026,0,0,0,13.876-5.7c3.47-3.218,6.441-8.169,6.441-15.844a21.937,21.937,0,0,0-13.627-20.3,15.97,15.97,0,0,0-7.685-.991c-2.229,0-5.451.248-10.159,3.466a15.5,15.5,0,0,0-5.451,4.953,22.806,22.806,0,0,0-4.212,13.12,21.04,21.04,0,0,0,20.815,21.293M266.593,192.366l42.377-.991-6.2-19.31,23.294-91.109,26.268,111.657,42.626-1.239-5.206-16.588L419.245,52.981c1.983-7.675,2.975-10.4,5.7-14.605,4.214-6.686,7.93-9.161,18.092-10.894V15.1H387.031V27.73c2.479.246,19.827.494,19.827,16.34,0,5.942-4.956,26.49-9.914,46.05l-15.115,62.388L349.61,13.121,310.455,23.767l8.426,30.452-23.789,96.06L269.319,29.215l14.126-1.485V15.6H215.792V27.73l13.38,1.485ZM193.418,364.358c6.443,8.663,20.815,21.787,42.869,21.787a56.7,56.7,0,0,0,29.245-8.419c7.184-4.457,12.638-10.893,14.865-13.616,6.2-8.171,13.384-22.53,13.384-42.583a74.523,74.523,0,0,0-4.956-26.49c-4.956-12.131-14.374-20.8-17.594-23.52a8.658,8.658,0,0,1-1.983-1.237c-14.372-10.646-27.262-10.646-31.966-10.4a53.745,53.745,0,0,0-26.518,6.932c-30.73,17.082-30.48,52.732-30.48,55.952,0,3.96.248,24.757,13.134,41.593m27.754-78.235a31.769,31.769,0,0,1,3.468-6.684c2.231-3.218,6.195-7.427,12.886-7.923,8.179-.5,12.888,6.19,14.621,9.656,4.214,8.169,5.7,21.785,5.7,41.593,0,21.291-2.725,36.89-10.159,45.553-2.479,2.972-5.206,5.447-11.647,5.447-1.488,0-6.445.248-10.9-5.2a20.531,20.531,0,0,1-1.983-2.97,37.68,37.68,0,0,1-2.727-4.951,88.5,88.5,0,0,1-3.22-14.112,198.7,198.7,0,0,1-1.239-24.263c0-18.319,1.983-27.481,5.2-36.146" transform="translate(0 -0.001)"/></svg>