<svg width="406.49" height="568.27" xmlns="http://www.w3.org/2000/svg">
 <defs>
  <style>.cls-1{fill:#ffde00;opacity:0.89;}.cls-1,.cls-3{isolation:isolate;}.cls-2,.cls-4,.cls-5,.cls-6{fill:none;}.cls-2,.cls-4,.cls-6{stroke:#000;}.cls-2{stroke-miterlimit:10;stroke-width:1.13px;}.cls-4{stroke-miterlimit:10;stroke-width:1.12px;}.cls-6{stroke-miterlimit:4;}</style>
 </defs>
 <g>
  <title>background</title>
  <rect fill="none" id="canvas_background" height="602" width="802" y="-1" x="-1"/>
 </g>
 <g>
  <title>Layer 1</title>
  <g id="Layer_2">
   <g id="Layer_1-2">
    <g id="Group_258">
     <path d="m28.18,42.16l-5.32,0.9a27.82,27.82 0 0 1 -22.86,32l0,0l76.09,470.05a27.84,27.84 0 0 1 31.79,23.16l0,0l5.32,-0.91a8.3,8.3 0 0 1 16.34,-2.91l0,0.31l5.32,-0.91a8.3,8.3 0 1 1 16.34,-2.91l0,0.3l5.32,-0.9a8.26,8.26 0 1 1 16.25,-3a0.76,0.76 0 0 0 0.1,0.4l5.31,-0.9a8.3,8.3 0 0 1 16.35,-2.92l0,0.21l5.31,-0.91a8.3,8.3 0 1 1 16.35,-2.91l0,0.2l5.32,-0.9a8.28,8.28 0 1 1 16.34,-2.71l0,0l5.32,-0.9a8.3,8.3 0 0 1 16.35,-2.92l0,0.31l5.31,-0.91a8.3,8.3 0 1 1 16.35,-2.91l0,0.2l5.31,-0.9a8.29,8.29 0 0 1 16.35,-2.71l0,0l5.32,-0.91a8.28,8.28 0 0 1 16.34,-2.71l0,0l5.32,-0.9a8.33,8.33 0 0 1 16.44,-2.71l5.32,-0.9a8.29,8.29 0 1 1 16.35,-2.71l5.31,-0.91a27.81,27.81 0 0 1 22.86,-32l0,0l-76.1,-469.25a27.78,27.78 0 0 1 -31.78,-23.16l0,0l-5.31,0.9a8.34,8.34 0 0 1 -16.45,2.71l-5.31,0.91a8.3,8.3 0 1 1 -16.35,2.91l0,-0.2l-5.32,0.9a8.28,8.28 0 1 1 -16.34,2.71l-5.32,0.9a8.29,8.29 0 1 1 -16.35,2.71l-5.31,0.91a8.46,8.46 0 0 1 -6.82,9.64a8.37,8.37 0 0 1 -9.53,-6.92l-5.31,0.9a8.29,8.29 0 1 1 -16.35,2.71l-5.32,0.9a8.28,8.28 0 1 1 -16.34,2.71l0,0l-5.32,0.91a8.28,8.28 0 1 1 -16.34,2.71l-5.32,0.9a8.29,8.29 0 1 1 -16.35,2.71l-5.31,0.9a8.29,8.29 0 1 1 -16.35,2.7l-5.31,0.87a8.29,8.29 0 1 1 -16.35,2.71l-5.32,0.9a8.37,8.37 0 0 1 -6.81,9.63c-4.62,-0.5 -8.83,-3.61 -9.53,-8.12" class="cls-1" id="Path_3166-2"/>
     <g id="Group_257">
      <g id="Group_251">
       <path d="m283.24,23a37.41,37.41 0 0 0 26.07,16.22l69.86,440.91a37.42,37.42 0 0 0 -19.77,23.49" class="cls-2" id="Path_3163"/>
       <path d="m109.34,543.13a37.37,37.37 0 0 0 -26.06,-16.22l-69.87,-440.91a37.39,37.39 0 0 0 19.77,-23.49" class="cls-2" id="Path_3164"/>
      </g>
     </g>
    </g>
    <g id="Group_255">
     <g id="Group_250">
      <path d="m72.26,30.57l-5.32,0.48a28,28 0 0 1 -25.28,30.35l0,0l41.51,475.43a28,28 0 0 1 30.15,25.48l0,0l5.33,-0.49a8.32,8.32 0 1 1 16.56,-1.67l0,0.31l5.32,-0.49a8.33,8.33 0 0 1 16.57,-1.67l0,0.31l5.32,-0.49a8.34,8.34 0 1 1 16.58,-1.87l0,0.41l5.32,-0.49a8.33,8.33 0 0 1 16.57,-1.67l0,0.21l5.32,-0.49a8.33,8.33 0 0 1 16.57,-1.67l0,0.21l5.32,-0.49a8.32,8.32 0 1 1 16.57,-1.46l0,0l5.32,-0.49a8.32,8.32 0 1 1 16.56,-1.67l0,0.35l5.33,-0.49a8.32,8.32 0 1 1 16.56,-1.66l0,0.2l5.32,-0.49a8.32,8.32 0 1 1 16.57,-1.46l0,0l5.32,-0.49a8.32,8.32 0 1 1 16.57,-1.46l0,0l5.32,-0.49a8.32,8.32 0 1 1 16.57,-1.46l5.32,-0.49a8.32,8.32 0 1 1 16.57,-1.5l5.32,-0.49a28,28 0 0 1 25.18,-30.35l0,0l-41.03,-475.37a28,28 0 0 1 -30.14,-25.43l0,0l-5.33,0.48a8.31,8.31 0 1 1 -16.56,1.47l-5.32,0.48a8.33,8.33 0 0 1 -16.57,1.67l0,-0.2l-5.32,0.48a8.42,8.42 0 0 1 -7.56,9.12a8.33,8.33 0 0 1 -9,-7.65l-5.32,0.48a8.42,8.42 0 0 1 -7.57,9.1a8.34,8.34 0 0 1 -9,-7.65l-5.32,0.48a8.32,8.32 0 1 1 -16.57,1.47l-5.32,0.48a8.32,8.32 0 1 1 -16.57,1.49l-5.32,0.49a8.32,8.32 0 0 1 -16.57,1.46l0,0l-5.32,0.49a8.41,8.41 0 0 1 -7.55,9.11a8.33,8.33 0 0 1 -9,-7.65l-5.33,0.49a8.31,8.31 0 1 1 -16.56,1.46l-5.33,0.49a8.31,8.31 0 1 1 -16.56,1.46l-5.32,0.49a8.42,8.42 0 0 1 -7.56,9.11a8.33,8.33 0 0 1 -9,-7.65l-5.32,0.49a8.42,8.42 0 0 1 -7.56,9.11c-5,-0.11 -9,-3.54 -9.41,-8" class="cls-1" id="Path_3155-2"/>
      <g id="Group_231">
       <g id="Group_230">
        <g id="Group_229">
         <g id="Group_228">
          <g id="Group_227">
           <g id="Group_226">
            <g id="svg_1" class="cls-3">
             <path id="svg_2" d="m145.37,133.7c-2.89,0.25 -5,-1.17 -5.32,-4.55a6.82,6.82 0 0 1 0.14,-1.92c-3.55,4.22 -7.06,7.64 -10.75,8c-2.29,0.2 -4.78,-0.78 -5.1,-4.37c-0.74,-8.47 14.48,-21.54 13.95,-27.61c-0.11,-1.3 -0.68,-2 -2.38,-1.9c-7,0.61 -19.45,11.63 -18.81,19c0.16,1.79 0.83,2.54 1.72,2.46c1.4,-0.12 1.91,-1.17 2.4,-1.21c0.2,0 0.41,0.06 0.43,0.26c0,0.6 -1.34,1.93 -3.23,2.09c-1.59,0.14 -3.17,-0.63 -3.42,-3.51c-0.69,-8 12.17,-19.23 20.84,-20c3.88,-0.34 5.33,1.34 5.52,3.43c0.69,8 -14.48,19.23 -13.77,27.4c0.16,1.79 1,2.82 2.44,2.7c3.39,-0.3 7.07,-4.13 10.89,-8.68a38.71,38.71 0 0 1 3.37,-7.32c2.3,-3.52 4.55,-6.52 5.55,-6.61c0.5,0 0.93,0.32 1,1c0.1,1.09 -0.66,2.77 -2.15,5.3a37.93,37.93 0 0 1 -5.22,6.88a11.29,11.29 0 0 0 -0.57,5c0.2,2.29 1.3,3.4 3.1,3.24c9.06,-0.79 20.08,-22.83 19.33,-31.39c-0.14,-1.6 -1,-2.12 -1.88,-2a5.72,5.72 0 0 0 -3.63,2.13c-0.64,0.76 -1,1.49 -1.37,1.52c-0.2,0 -0.41,-0.06 -0.43,-0.26c-0.07,-0.9 2.54,-4.24 5.63,-4.51c2,-0.17 4,0.66 4.27,4c0.71,10.53 -11.99,30.51 -22.55,31.43z"/>
             <path id="svg_3" d="m174.52,128.54c-5,0.44 -7.67,-1.63 -8,-4.92c-0.44,-5 4.77,-10.86 10.75,-11.38c2.78,-0.24 4.38,0.82 4.57,2.92c0.25,2.88 -3.73,6.74 -9.51,7.25a13.23,13.23 0 0 1 -2.81,-0.06c0,0.3 0,0.71 0,1.11c0.24,2.69 2,4.24 5.07,4c4.88,-0.43 7.72,-3.48 10.41,-8.34a0.54,0.54 0 0 1 0.37,-0.33c0.3,0 0.42,0.17 0.44,0.46c0.06,0.7 -2.07,3.8 -3.54,5.43a11.1,11.1 0 0 1 -7.75,3.86zm-4.74,-7.21a7.51,7.51 0 0 0 1.5,0c4.68,-0.41 8.29,-3.94 8.05,-6.72c-0.11,-1.2 -0.84,-1.54 -2.14,-1.42c-3.08,0.24 -6.66,4.06 -7.41,8.14z"/>
            </g>
            <g id="svg_4" class="cls-3">
             <path id="svg_5" d="m188,126.76c-1.8,0.16 -3.19,-0.82 -3.39,-3.11c-0.36,-4.19 4.07,-12.1 6.59,-16.54c3.4,-5.91 6.07,-9.76 7.47,-9.88c0.29,0 0.51,0.15 0.55,0.55c0.1,1.2 -1.05,4.11 -2.78,7.27a60.11,60.11 0 0 1 -6.57,9.81c-1.82,3.37 -3.07,6.19 -2.85,8.78c0.11,1.29 0.66,1.75 1.55,1.67c2.09,-0.18 4.68,-2.72 7.2,-7.25a0.54,0.54 0 0 1 0.37,-0.34c0.3,0 0.42,0.17 0.44,0.47c0.08,0.69 -3.98,8.17 -8.58,8.57z"/>
             <path id="svg_6" d="m212.73,116.68a0.54,0.54 0 0 1 0.37,-0.34c0.3,0 0.42,0.17 0.44,0.47c0.05,0.49 -1.12,3.21 -3.62,5.63a12.78,12.78 0 0 1 -7.81,3.69c-3.88,0.34 -6.36,-1.65 -6.66,-5c-0.43,-5 5,-10.88 10.35,-11.35c2.49,-0.21 3.89,0.87 4,2.36c0.17,1.9 -1.06,3.91 -2.26,4a1.1,1.1 0 0 1 -1.3,-1.09c-0.07,-0.79 1.13,-2 1,-3.5c-0.06,-0.69 -0.48,-1 -1.48,-0.87c-3.59,0.31 -7.66,5.39 -7.24,10.17c0.23,2.69 1.67,4.17 4.16,4c4.32,-0.35 7.56,-3.34 10.05,-8.17z"/>
            </g>
            <g id="svg_7" class="cls-3">
             <path id="svg_8" d="m227.65,115.17c-1.24,4.13 -5.83,9 -10.12,9.42c-2.49,0.21 -5,-1 -5.28,-4.16c-0.48,-5.48 6.09,-11.87 11,-12.3c2.39,-0.21 3.82,1.17 3.94,2.57l0.05,0.6a1.45,1.45 0 0 1 0.93,1.42a4.82,4.82 0 0 1 0,1.2c3.09,-0.27 6,-1.72 9,-4.5a0.81,0.81 0 0 1 0.49,-0.24c0.29,0 0.3,0.07 0.33,0.37c-0.1,1.01 -4.99,5.15 -10.34,5.62zm-9.52,8.16c2.69,-0.23 6.27,-4.06 7.31,-8.17c-1.22,-0.19 -1.77,-0.74 -1.86,-1.74a2.07,2.07 0 0 1 2,-2.28l0.1,0c0.08,-1.41 -0.89,-2.13 -2.38,-2c-3.49,0.3 -8.35,6.65 -7.93,11.43c0.17,1.88 1.06,2.91 2.76,2.76z"/>
            </g>
            <g id="svg_9" class="cls-3">
             <path id="svg_10" d="m254.85,120.93a3.26,3.26 0 0 1 -3.79,-3.19c-0.27,-3.08 2.27,-7.32 3.84,-10.07a42.49,42.49 0 0 0 -6.3,7.18c-2.59,3.74 -4.11,7 -5.8,7.13a1.82,1.82 0 0 1 -2,-1.74c-0.29,-3.28 2.95,-8.79 4.69,-11.75a31.22,31.22 0 0 0 -5.21,5.78c-3,4.18 -5.4,8.3 -7.09,8.44a1.4,1.4 0 0 1 -1.73,-1.35c-0.22,-2.59 2.64,-7.76 5.68,-11.94a2.12,2.12 0 0 1 1.63,-0.94c0.7,-0.06 1.22,0.19 1.27,0.79a1.33,1.33 0 0 1 -0.32,0.93c-2.69,3.65 -4.82,8 -4.73,9c0,0.1 0,0.2 0.22,0.19c0.4,0 2.25,-2.91 4.4,-5.91c2.33,-3.21 5.42,-6.89 7.81,-7.1c1,-0.09 1.73,0.25 1.78,0.84a1.31,1.31 0 0 1 -0.15,0.62c-1.14,1.81 -5.28,8.49 -5.1,10.48c0,0.4 0.25,0.58 0.55,0.56c0.59,-0.06 1.9,-2.38 3.59,-4.83c2.77,-4 6.31,-8.18 8.7,-8.39c1,-0.09 1.73,0.25 1.78,0.85a1.28,1.28 0 0 1 -0.15,0.61c-1.31,2.22 -4.69,7.14 -4.35,11c0.08,1 0.44,1.67 1.54,1.57c2.49,-0.22 4.68,-2.72 7.19,-7.25a0.53,0.53 0 0 1 0.38,-0.33c0.3,0 0.41,0.16 0.44,0.46c-0.13,0.43 -4.09,7.95 -8.77,8.36z"/>
            </g>
            <g id="svg_11" class="cls-3">
             <path id="svg_12" d="m270.54,120.16c-5,0.43 -7.67,-1.64 -8,-4.93c-0.43,-5 4.77,-10.85 10.75,-11.37c2.79,-0.25 4.39,0.82 4.57,2.91c0.25,2.89 -3.73,6.75 -9.5,7.25a13.32,13.32 0 0 1 -2.82,0c0,0.3 0,0.7 0,1.1c0.23,2.69 2,4.24 5.06,4c4.88,-0.42 7.73,-3.48 10.41,-8.33a0.57,0.57 0 0 1 0.38,-0.34c0.29,0 0.41,0.17 0.44,0.47c0.06,0.69 -2.08,3.79 -3.54,5.43a11.18,11.18 0 0 1 -7.75,3.81zm-4.85,-7.16a6.92,6.92 0 0 0 1.51,0c4.68,-0.41 8.28,-3.93 8,-6.72c-0.1,-1.2 -0.84,-1.53 -2.13,-1.42c-3.07,0.19 -6.63,4.01 -7.38,8.14z"/>
            </g>
           </g>
          </g>
         </g>
        </g>
       </g>
      </g>
      <g id="Group_237">
       <g id="Group_236">
        <g id="Group_235">
         <g id="Group_234">
          <g id="Group_233">
           <g id="Group_232">
            <g id="svg_13" class="cls-3">
             <path id="svg_14" d="m114.57,165.42a2.06,2.06 0 0 1 -2.3,-2.11c-0.24,-2.79 2.8,-8.17 4.45,-11.13l0,-0.1l-3.28,0.29c-0.6,0 -0.91,0 -0.94,-0.32s0.27,-0.42 0.76,-0.57c0.89,-0.18 2.28,-0.3 4.07,-0.45c1.5,-2.44 2.89,-3.77 3.58,-3.83c0.2,0 0.31,0.07 0.34,0.37a9.38,9.38 0 0 1 -1.12,3.31c1,-0.08 2,-0.07 3.1,-0.17c0.59,-0.05 0.81,0.13 0.83,0.33s-0.27,0.33 -0.77,0.37l-3.59,0.31a5.58,5.58 0 0 1 -0.42,0.94a28.43,28.43 0 0 1 -3.57,5c-1.12,2.21 -2,4.09 -1.81,5.78c0.08,0.9 0.41,1.17 1.1,1.11c1.4,-0.12 3.06,-1.78 4.79,-4.94c0.09,-0.11 0.18,-0.21 0.28,-0.22a0.27,0.27 0 0 1 0.33,0.27c-0.06,0.64 -2.85,5.5 -5.83,5.76z"/>
             <path id="svg_15" d="m129.63,158.68c-0.86,2.79 -4,6.07 -6.77,6.31a3,3 0 0 1 -3.56,-2.8c-0.32,-3.68 4.12,-8 7.41,-8.27c1.59,-0.14 2.58,0.78 2.65,1.67l0,0.4a1.11,1.11 0 0 1 0.68,0.95a2,2 0 0 1 0,0.8a10.11,10.11 0 0 0 6.06,-3a0.39,0.39 0 0 1 0.29,-0.12c0.2,0 0.21,0.08 0.23,0.28c-0.03,0.67 -3.3,3.46 -6.99,3.78zm-6.34,5.47c1.79,-0.15 4.27,-2.78 4.93,-5.55a1.12,1.12 0 0 1 -1.2,-1.09a1.39,1.39 0 0 1 1.37,-1.53l0.1,0c0,-1 -0.63,-1.45 -1.62,-1.36c-2.39,0.21 -5.63,4.5 -5.35,7.69c0.01,1.29 0.67,1.94 1.77,1.84z"/>
            </g>
            <g id="svg_16" class="cls-3">
             <path id="svg_17" d="m142.85,163a2.06,2.06 0 0 1 -2.29,-2.11c-0.24,-2.79 2.8,-8.17 4.45,-11.13l0,-0.1l-3.29,0.29c-0.6,0 -0.9,0 -0.93,-0.32s0.26,-0.43 0.75,-0.57c0.89,-0.18 2.29,-0.3 4.08,-0.45c1.49,-2.44 2.88,-3.77 3.58,-3.83c0.2,0 0.31,0.07 0.33,0.37a8.43,8.43 0 0 1 -1.21,3.32c1,-0.09 2,-0.07 3.09,-0.17c0.6,-0.05 0.82,0.13 0.83,0.33s-0.27,0.32 -0.77,0.37l-3.58,0.31a4.2,4.2 0 0 0 -0.34,0.73a28.43,28.43 0 0 1 -3.57,5c-1.12,2.21 -2,4.09 -1.81,5.78c0.08,0.9 0.41,1.17 1.1,1.11c1.4,-0.12 3.06,-1.78 4.79,-4.94c0.09,-0.11 0.18,-0.21 0.28,-0.22a0.27,0.27 0 0 1 0.33,0.27c0.06,0.78 -2.73,5.64 -5.82,5.96z"/>
            </g>
            <g id="svg_18" class="cls-3">
             <path id="svg_19" d="m156.2,161.78a2.18,2.18 0 0 1 -2.59,-2.08c-0.19,-2.09 1.47,-4.95 2.62,-6.75a25.09,25.09 0 0 0 -3.57,3.92c-2.07,2.79 -3.52,5.63 -4.82,5.74c-0.6,0 -1,-0.21 -1.11,-1.21c-0.15,-1.69 3.41,-9.23 5.06,-12.18c2.25,-4.11 4.14,-6.58 5,-6.66c0.2,0 0.3,0.07 0.33,0.37c0.07,0.8 -0.66,2.77 -1.88,4.88a25,25 0 0 1 -3.2,4.8c-2.17,3.8 -3.23,6.6 -3.16,7.4a0.36,0.36 0 0 0 0.11,0.19c0.3,0 1.54,-1.94 3.07,-4s3.61,-4.63 5.3,-4.78c0.7,-0.06 1.12,0.2 1.16,0.6c0,0.1 -0.07,0.31 -0.07,0.41c-0.87,1.48 -3.18,4.89 -3,7.38c0.06,0.7 0.29,1.08 1,1c1.69,-0.15 3.15,-1.78 4.89,-4.94c0.09,-0.11 0.18,-0.22 0.28,-0.23s0.3,0.07 0.32,0.27c0.13,0.74 -2.55,5.59 -5.74,5.87z"/>
            </g>
            <g id="svg_20" class="cls-3">
             <path id="svg_21" d="m166.79,161.26c-3.39,0.29 -5.22,-1.15 -5.41,-3.34c-0.3,-3.39 3.28,-7.32 7.26,-7.66c1.89,-0.17 3,0.54 3.08,1.94c0.17,2 -2.51,4.53 -6.4,4.87a13.56,13.56 0 0 1 -1.91,0c0,0.2 0,0.5 0,0.7c0.16,1.79 1.36,2.89 3.45,2.71c3.29,-0.29 5.21,-2.36 7,-5.63c0.09,-0.11 0.18,-0.22 0.28,-0.23a0.27,0.27 0 0 1 0.32,0.28c0,0.49 -1.38,2.53 -2.39,3.62a7.31,7.31 0 0 1 -5.28,2.74zm-3.23,-4.84a3.36,3.36 0 0 0 1,0c3.19,-0.27 5.59,-2.69 5.43,-4.48c-0.07,-0.8 -0.59,-1.06 -1.49,-1c-2.09,0.21 -4.5,2.73 -4.94,5.48z"/>
            </g>
            <g id="svg_22" class="cls-3">
             <path id="svg_23" d="m183.42,159.8l0,0c-1.89,0.17 -2.75,-0.46 -2.82,-1.35a0.89,0.89 0 0 1 0.81,-1c0.6,-0.05 1,0.62 1.65,1.56a2.59,2.59 0 0 0 2.14,-3c-0.13,-1.5 -0.93,-2.63 -1.37,-4.2c-2,4.08 -4,6.87 -4.71,6.94c-0.2,0 -0.31,-0.08 -0.32,-0.18s0.08,-0.21 0.18,-0.31c1.57,-1.55 3.22,-4.5 4.67,-7.44l-0.05,-0.5c-0.13,-1.49 0.62,-3.26 1.52,-3.34c0.59,0 0.82,0.23 0.85,0.63a4.65,4.65 0 0 1 -0.78,2.48c0.49,2.16 1.9,3.44 2.08,5.43a4.52,4.52 0 0 1 -1.32,3.33c2.74,-0.84 4,-2.95 5.36,-5.28c0.09,-0.11 0.18,-0.22 0.28,-0.23a0.27,0.27 0 0 1 0.33,0.27a10.72,10.72 0 0 1 -3.12,4.49a11.74,11.74 0 0 1 -5.38,1.7z"/>
             <path id="svg_24" d="m202.75,152.4c0.09,-0.11 0.18,-0.22 0.28,-0.23a0.26,0.26 0 0 1 0.32,0.27a9.07,9.07 0 0 1 -2.47,3.83a8.5,8.5 0 0 1 -5.3,2.47c-2.59,0.23 -4.32,-1.13 -4.52,-3.42c-0.29,-3.38 3.38,-7.32 7,-7.63c1.7,-0.15 2.66,0.57 2.75,1.57c0.11,1.29 -0.77,2.67 -1.47,2.73s-0.82,-0.22 -0.87,-0.72s0.79,-1.38 0.7,-2.37c0,-0.5 -0.36,-0.67 -1,-0.62c-2.39,0.21 -5.2,3.66 -4.92,6.85c0.16,1.79 1.15,2.81 2.84,2.66c2.8,-0.14 4.91,-2.03 6.66,-5.39z"/>
             <path id="svg_25" d="m207.59,157.29a1.92,1.92 0 0 1 -2.37,-1.9c-0.18,-2.09 1.66,-4 1.52,-5.55c-0.05,-0.6 -0.67,-0.75 -1.29,-1c-2,4.59 -4.53,7.92 -5.22,8c-0.2,0 -0.31,-0.07 -0.32,-0.17s0.08,-0.21 0.17,-0.32c1.57,-1.54 3.31,-4.6 4.75,-7.64a1.56,1.56 0 0 1 -1,-1.32a2.26,2.26 0 0 1 1.51,-2.23c0.39,0 0.73,0.33 0.78,0.93a4.44,4.44 0 0 1 -0.53,1.95c1.35,0.49 2.85,0.46 3,1.85c0.15,1.7 -1.79,3.67 -1.62,5.56c0.06,0.7 0.29,1.08 1.09,1c1.3,-0.11 3.06,-1.77 4.8,-4.83c0.09,-0.11 0.18,-0.22 0.28,-0.23a0.26,0.26 0 0 1 0.32,0.27c0,0.4 -2.68,5.34 -5.87,5.63z"/>
             <path id="svg_26" d="m218.18,156.77c-3.38,0.29 -5.21,-1.15 -5.41,-3.34c-0.29,-3.39 3.28,-7.31 7.26,-7.66c1.9,-0.17 3,0.54 3.08,1.94c0.18,2 -2.51,4.53 -6.4,4.87a13.58,13.58 0 0 1 -1.91,0c0,0.2 -0.05,0.5 0,0.7c0.15,1.8 1.35,2.9 3.44,2.71c3.29,-0.28 5.22,-2.36 7,-5.63c0.09,-0.11 0.18,-0.22 0.28,-0.23a0.28,0.28 0 0 1 0.33,0.28c0,0.5 -1.39,2.53 -2.4,3.62a7.24,7.24 0 0 1 -5.27,2.74zm-3.18,-4.84a3.11,3.11 0 0 0 1,0c3.18,-0.27 5.58,-2.69 5.43,-4.48c-0.07,-0.8 -0.6,-1.06 -1.49,-1c-2.04,0.21 -4.53,2.73 -4.94,5.48z"/>
             <path id="svg_27" d="m230.63,155.68c-3.38,0.3 -5.21,-1.15 -5.41,-3.34c-0.29,-3.39 3.28,-7.31 7.26,-7.66c1.9,-0.17 3,0.54 3.08,1.94c0.18,2 -2.51,4.53 -6.4,4.87a11.11,11.11 0 0 1 -1.91,0c0,0.2 -0.05,0.51 0,0.71c0.15,1.79 1.35,2.89 3.44,2.71c3.29,-0.29 5.22,-2.37 7,-5.64c0.09,-0.11 0.18,-0.21 0.28,-0.22a0.27,0.27 0 0 1 0.33,0.27c0,0.5 -1.39,2.53 -2.4,3.62a6.93,6.93 0 0 1 -5.27,2.74zm-3.13,-4.84a3.8,3.8 0 0 0 1,0c3.18,-0.28 5.58,-2.7 5.42,-4.49c-0.06,-0.8 -0.59,-1.05 -1.49,-1c-2.08,0.22 -4.43,2.74 -4.93,5.49z"/>
             <path id="svg_28" d="m246,153.93a2.17,2.17 0 0 1 -2.59,-2.08c-0.19,-2.09 1.47,-4.94 2.62,-6.75a25.55,25.55 0 0 0 -3.53,3.9c-2.07,2.79 -3.63,5.64 -4.82,5.74c-0.7,0.06 -1.13,-0.3 -1.2,-1.1c-0.13,-1.49 1.76,-5.07 3.82,-8a1.4,1.4 0 0 1 1,-0.59c0.5,0 0.82,0.13 0.85,0.53c0,0.2 -0.07,0.31 -0.25,0.62c-2.15,2.9 -3.34,5.41 -3.28,6a0.3,0.3 0 0 0 0.11,0.19c0.3,0 1.54,-1.94 3,-4s3.61,-4.63 5.3,-4.78c0.7,-0.06 1.12,0.2 1.16,0.6c0,0.1 -0.08,0.31 -0.07,0.41c-0.87,1.48 -3.18,4.89 -3,7.38c0.07,0.7 0.3,1.08 1,1c1.69,-0.15 3.15,-1.78 4.88,-4.94c0.1,-0.11 0.19,-0.22 0.29,-0.23a0.26,0.26 0 0 1 0.32,0.27c0.29,0.6 -2.49,5.56 -5.61,5.83z"/>
            </g>
            <g id="svg_29" class="cls-3">
             <path id="svg_30" d="m250.63,151.32c-0.19,-2.19 1.64,-5.26 3.72,-7.95a1.2,1.2 0 0 1 0.86,-0.47a0.81,0.81 0 0 1 1,0.61a1.79,1.79 0 0 1 -0.16,0.52c-1.52,2.14 -3.58,4.93 -3.36,7.52c0.06,0.6 0.29,1 0.89,0.93c1.39,-0.13 3.15,-1.79 4.79,-4.84c0.09,-0.11 0.19,-0.22 0.29,-0.22a0.26,0.26 0 0 1 0.32,0.27c0,0.4 -2.73,5.46 -5.82,5.73c-1.55,0.03 -2.4,-0.6 -2.53,-2.1zm9,-16.14c0.5,0 0.73,0.24 0.75,0.54a3.14,3.14 0 0 1 -2.19,2.5a0.62,0.62 0 0 1 -0.75,-0.54a3,3 0 0 1 2.21,-2.5l-0.02,0z"/>
            </g>
            <g id="svg_31" class="cls-3">
             <path id="svg_32" d="m266.36,152.16a2.18,2.18 0 0 1 -2.59,-2.08c-0.19,-2.09 1.47,-5 2.62,-6.76a25.19,25.19 0 0 0 -3.57,3.93c-2.07,2.79 -3.63,5.63 -4.82,5.74c-0.7,0.06 -1.13,-0.3 -1.2,-1.1c-0.13,-1.49 1.76,-5.07 3.82,-8a1.38,1.38 0 0 1 1.05,-0.6c0.5,0 0.82,0.13 0.85,0.53c0,0.2 -0.07,0.31 -0.25,0.63c-2.15,2.89 -3.34,5.41 -3.29,6a0.35,0.35 0 0 0 0.12,0.19c0.3,0 1.54,-1.94 3,-4s3.61,-4.63 5.3,-4.78c0.7,-0.06 1.12,0.21 1.16,0.61c0,0.1 -0.08,0.3 -0.07,0.4c-0.87,1.48 -3.18,4.9 -3,7.39c0.06,0.69 0.3,1.08 1,1c1.69,-0.14 3.15,-1.78 4.88,-4.94c0.09,-0.11 0.18,-0.22 0.28,-0.22a0.27,0.27 0 0 1 0.33,0.27c0.24,0.56 -2.54,5.52 -5.62,5.79z"/>
             <path id="svg_33" d="m272.5,161.66c-1.89,0.16 -3.88,-0.87 -4,-2.56c-0.28,-3.19 3.88,-3.75 8.5,-6.06a34.69,34.69 0 0 1 1.07,-3.81c-1.08,1.4 -2.39,2.52 -3.68,2.63c-1.79,0.16 -2.89,-1 -3.06,-2.84c-0.3,-3.49 3.22,-7.91 6.91,-8.23a3.64,3.64 0 0 1 3.2,1c0.63,-0.86 1.18,-1.41 1.78,-1.46c0.3,0 0.51,0.16 0.55,0.56c0.12,1.39 -2.86,5.16 -4.6,7.12a21.68,21.68 0 0 0 -0.55,4c0.28,-0.22 0.57,-0.35 0.85,-0.57a18.61,18.61 0 0 0 5.58,-6.21c0.09,-0.11 0.18,-0.22 0.28,-0.23a0.27,0.27 0 0 1 0.32,0.28a9.49,9.49 0 0 1 -1.93,3.18a27.37,27.37 0 0 1 -4,3.66l-1.14,0.7a14.91,14.91 0 0 1 -0.85,5.29c-0.82,2.26 -3.23,3.37 -5.23,3.55zm0,-0.5c1.2,-0.1 2.32,-1 3.07,-2.78a29.13,29.13 0 0 0 1.31,-4.53c-3.85,1.84 -6.92,2.31 -6.67,5.2a2,2 0 0 0 2.25,2.11l0.04,0zm2.32,-10.24c1.29,-0.11 2.74,-1.94 4,-4a28.14,28.14 0 0 1 1.95,-4.08a2.26,2.26 0 0 0 -2.35,-1.6c-2.79,0.24 -5.21,4.67 -5,7.65c0.11,1.54 0.46,2.11 1.36,2.03l0.04,0z"/>
            </g>
            <g id="svg_34" class="cls-3">
             <path id="svg_35" d="m289.69,147c0.5,0 0.82,0.23 0.85,0.53a3.24,3.24 0 0 1 -2.28,2.61c-0.6,0 -0.72,-0.24 -0.76,-0.64c-0.16,-0.68 1.1,-2.39 2.19,-2.5zm13.18,-19.12a0.78,0.78 0 0 1 -0.43,0.74a71.69,71.69 0 0 0 -11.07,13.42c-0.53,0.84 -0.72,1 -0.92,1s-0.33,-0.27 -0.25,-0.48a53,53 0 0 1 10.42,-15.16a1.63,1.63 0 0 1 0.86,-0.48c0.71,0.08 1.34,0.38 1.39,0.97l0,-0.01z"/>
            </g>
           </g>
          </g>
         </g>
        </g>
       </g>
      </g>
      <path d="m140.56,228.85l-0.56,14.81l-3.37,-14.46l-1.4,0.12l-0.91,14.83l-3.17,-14.47l-1.69,0.15l3.91,17.22l1.79,-0.16l0.78,-14.12l3.21,13.77l1.79,-0.15l0.87,-17.64l-1.25,0.1zm8.47,0.47l-0.1,-1.2l-5.08,0.45l1.52,17.43l5.08,-0.45l-0.1,-1.19l-3.59,0.31l-0.63,-7.17l3.59,-0.31l-0.1,-1.2l-3.59,0.31l-0.58,-6.67l3.58,-0.31zm11.15,-2.18l0.69,7.87l-3.59,0.31l-0.68,-7.87l-1.5,0.13l1.53,17.42l1.59,-0.14l-0.73,-8.36l3.58,-0.32l0.74,8.37l1.59,-0.14l-1.52,-17.41l-1.7,0.14zm9.7,16.81c1.89,-0.16 3.35,-0.69 3.14,-3.18l-1.02,-11.77c-0.22,-2.49 -1.75,-2.76 -3.64,-2.59s-3.25,0.68 -3,3.17l1,11.75c0.2,2.51 1.73,2.78 3.52,2.67l0,-0.05zm-0.09,-1.09c-1.3,0.11 -1.85,-0.44 -1.95,-1.64l-1,-11.75c-0.1,-1.19 0.34,-1.84 1.64,-1.95s1.84,0.44 2,1.64l1,11.75a1.58,1.58 0 0 1 -1.69,1.95zm8.42,-17.3l-3.39,0.3l1.53,17.43l1.59,-0.14l-0.59,-6.77l1.89,-0.17c2.19,-0.19 3.22,-1.08 3,-3.57l-0.38,-4.38c-0.22,-2.49 -1.76,-2.86 -3.65,-2.7zm2.47,7.62c0.11,1.19 -0.34,1.83 -1.63,1.95l-1.8,0.15l-0.73,-8.36l1.79,-0.16c1.3,-0.11 1.85,0.44 1.95,1.64l0.42,4.78zm8.49,-7.37l-0.1,-1.19l-5.08,0.44l1.52,17.43l5.08,-0.44l-0.1,-1.2l-3.59,0.31l-0.63,-7.17l3.59,-0.31l-0.11,-1.2l-3.58,0.32l-0.58,-6.68l3.58,-0.31zm11,-2.16l-1.51,9.16l-3.17,-8.75l-1.69,0.15l3.9,10.79l0.56,6.38l1.59,-0.14l-0.55,-6.38l2.12,-11.32l-1.25,0.11zm7.41,17c1.89,-0.17 3.35,-0.7 3.13,-3.19l-1,-11.75c-0.22,-2.49 -1.75,-2.76 -3.64,-2.59s-3.25,0.68 -3,3.17l1,11.75c0.14,2.51 1.67,2.78 3.46,2.63l0.05,-0.02zm-0.1,-1.1c-1.29,0.11 -1.84,-0.44 -1.94,-1.64l-1,-11.75c-0.11,-1.19 0.24,-1.83 1.63,-2s1.85,0.44 1.95,1.64l1,11.75c0.05,1.17 -0.29,1.9 -1.69,2.02l0.05,-0.02zm9.86,0.24c1.89,-0.16 3.35,-0.69 3.14,-3.18l-1.28,-14.54l-1.59,0.14l1.27,14.54c0.11,1.19 -0.34,1.83 -1.63,1.95s-1.85,-0.44 -1.95,-1.64l-1.3,-14.52l-1.6,0.14l1.27,14.54c0.2,2.49 1.73,2.78 3.62,2.59l0.05,-0.02zm13.61,-17.64l-0.1,-1.2l-5.08,0.44l1.52,17.43l5.08,-0.44l-0.1,-1.19l-3.59,0.31l-0.62,-7.17l3.58,-0.32l-0.1,-1.19l-3.59,0.31l-0.58,-6.67l3.58,-0.31zm8.17,-1.92l1.28,14.64l-5.17,-14.3l-1.59,0.14l1.52,17.43l1.2,-0.11l-1.25,-14.24l5.13,13.9l1.59,-0.14l-1.52,-17.43l-1.19,0.11zm4.71,17.15l0.89,-0.08c1.89,-0.16 3.35,-0.79 3.13,-3.28l-1.26,-14.44l-1.6,0.13l1.26,14.45c0.11,1.19 -0.24,1.82 -1.63,1.95l-0.9,0.07l0.11,1.2zm10.76,-0.84c1.89,-0.17 3.35,-0.69 3.14,-3.18l-1,-11.76c-0.22,-2.49 -1.75,-2.76 -3.64,-2.59s-3.25,0.69 -3,3.18l0.91,11.81c0.12,2.46 1.65,2.73 3.54,2.56l0.05,-0.02zm-0.09,-1.1c-1.3,0.12 -1.85,-0.44 -1.95,-1.63l-1,-11.75c-0.1,-1.2 0.24,-1.83 1.64,-2s1.84,0.44 1.95,1.63l1,11.75a1.58,1.58 0 0 1 -1.69,2.02l0.05,-0.02zm9.22,-17.36l-1.51,9.16l-3.21,-8.73l-1.6,0.14l4,10.79l0.55,6.38l1.6,-0.14l-0.56,-6.38l2.07,-11.3l-1.34,0.08zm12.1,-1.08l-6.77,0.59l0.1,1.19l2.59,-0.22l1.42,16.23l1.59,-0.14l-1.42,-16.23l2.59,-0.23l-0.1,-1.19zm7.07,-0.62l0.69,7.87l-3.59,0.31l-0.69,-7.87l-1.59,0.14l1.52,17.43l1.6,-0.14l-0.73,-8.36l3.58,-0.32l0.73,8.37l1.6,-0.14l-1.53,-17.43l-1.59,0.14zm10.16,0.32l-0.1,-1.2l-5.08,0.45l1.52,17.43l5.08,-0.45l-0.1,-1.19l-3.59,0.31l-0.62,-7.17l3.58,-0.31l-0.1,-1.2l-3.59,0.31l-0.58,-6.67l3.58,-0.31z" id="Path_3169"/>
      <path d="m132.42,279.24c1.89,-0.16 3.24,-0.78 3,-3.27l-0.38,-4.39c-0.14,-1.59 -1.48,-2 -3.17,-1.83l-0.6,0.06c-1.09,0.09 -1.54,-0.47 -1.64,-1.57l-0.31,-3.58c-0.1,-1.1 0.24,-1.83 1.63,-2s1.85,0.44 1.95,1.63l0.22,2.49l1.59,-0.13l-0.21,-2.49c-0.22,-2.49 -1.76,-2.86 -3.65,-2.7s-3.24,0.79 -3,3.28l0.35,4c0.17,1.89 1.41,2.29 3.2,2.13l0.6,0a1.35,1.35 0 0 1 1.59,1l0,0.4l0.33,3.79a1.8,1.8 0 1 1 -3.58,0.31l-0.21,-2.39l-1.6,0.14l0.21,2.39c0.26,2.49 1.79,2.9 3.68,2.73zm10,-18.54l0.69,7.87l-3.49,0.31l-0.62,-7.88l-1.59,0.14l1.52,17.43l1.6,-0.14l-0.73,-8.37l3.48,-0.3l0.73,8.36l1.6,-0.14l-1.61,-17.42l-1.58,0.14zm9.7,16.82c1.89,-0.17 3.34,-0.79 3.12,-3.28l-1,-11.66c-0.22,-2.49 -1.75,-2.76 -3.64,-2.59s-3.25,0.69 -3,3.18l1,11.75c0.22,2.49 1.75,2.76 3.54,2.6l-0.02,0zm-0.1,-1.1c-1.29,0.12 -1.84,-0.44 -1.95,-1.63l-1,-11.76c-0.11,-1.19 0.34,-1.83 1.63,-1.94s1.85,0.44 2,1.63l1,11.75a1.59,1.59 0 0 1 -1.7,1.95l0.02,0zm14.9,-17.86l-0.61,14.81l-3.31,-14.46l-1.4,0.12l-0.91,14.84l-3.17,-14.48l-1.59,0.14l3.91,17.22l1.79,-0.16l0.78,-14.11l3.21,13.77l1.79,-0.16l0.87,-17.64l-1.3,0.11l-0.06,0zm2.54,19.85c1.29,-0.11 1.87,-1.56 1.75,-3l-0.21,-2.41l-1.89,0.17l0.23,2.69l0.9,-0.08c0.09,1 0,1.81 -0.73,2l0.06,0.69l-0.11,-0.06zm12.53,-3.6l1.59,-0.14l-4.41,-17.18l-1.79,0.16l-1.38,17.68l1.3,-0.11l0.24,-3l3.78,-0.33l0.67,2.92zm-4.33,-3.81l0.74,-11.1l2.65,10.81l-3.39,0.29zm11.89,-14.38l1.28,14.64l-5.16,-14.3l-1.6,0.14l1.53,17.43l1.19,-0.11l-1.24,-14.24l5.13,13.9l1.69,-0.14l-1.52,-17.43l-1.3,0.11zm8.07,-0.71l-3.39,0.3l1.53,17.43l3.38,-0.3c1.79,-0.15 3.24,-0.78 3,-3.27l-1,-11.46c-0.14,-2.52 -1.73,-2.88 -3.52,-2.73l0,0.03zm2.95,14.3c0.1,1.09 -0.24,1.83 -1.63,1.95l-1.8,0.15l-1.31,-15l1.79,-0.15c1.3,-0.12 1.85,0.44 1.95,1.63l1,11.42zm10.43,-15.49l-3.29,0.28l1.52,17.43l1.59,-0.13l-0.59,-6.78l1.9,-0.16c2.09,-0.19 3.21,-1.09 3,-3.58l-0.39,-4.38c-0.34,-2.48 -1.88,-2.85 -3.74,-2.68zm2.47,7.61c0.1,1.2 -0.24,1.83 -1.64,1.95l-1.79,0.16l-0.73,-8.37l1.79,-0.16c1.29,-0.11 1.84,0.44 2,1.64l0.37,4.78zm6.41,8l-1.41,-16.23l-1.6,0.13l1.52,17.43l5.08,-0.44l-0.1,-1.19l-3.49,0.3zm9.15,-16l-0.11,-1.2l-5.08,0.45l1.5,17.42l5.08,-0.45l-0.11,-1.19l-3.58,0.31l-0.63,-7.17l3.59,-0.31l-0.11,-1.2l-3.58,0.31l-0.59,-6.67l3.62,-0.3zm8.89,15.58l1.59,-0.14l-4.41,-17.18l-1.79,0.16l-1.37,17.68l1.29,-0.11l0.24,-3l3.79,-0.33l0.66,2.92zm-4.45,-3.83l0.73,-11.1l2.65,10.81l-3.38,0.29zm11.33,3.33c1.89,-0.17 3.24,-0.79 3,-3.28l-0.38,-4.38c-0.14,-1.59 -1.48,-2 -3.17,-1.83l-0.6,0.05c-1.09,0.1 -1.54,-0.46 -1.64,-1.56l-0.31,-3.59c-0.1,-1.09 0.24,-1.82 1.63,-2s1.85,0.45 2,1.64l0.22,2.49l1.59,-0.14l-0.21,-2.49c-0.22,-2.49 -1.76,-2.86 -3.65,-2.69s-3.24,0.78 -3,3.27l0.35,4c0.17,1.89 1.4,2.28 3.2,2.13l0.6,0a1.33,1.33 0 0 1 1.58,1l0,0.4l0.33,3.78c0.1,1.1 -0.24,1.83 -1.64,1.95a1.59,1.59 0 0 1 -2,-1.63l-0.2,-2.39l-1.6,0.14l0.21,2.39c0.23,2.56 1.76,2.92 3.66,2.76l0.03,-0.02zm10,-17.34l-0.1,-1.19l-5.08,0.44l1.52,17.43l5.08,-0.44l-0.1,-1.2l-3.59,0.32l-0.62,-7.17l3.58,-0.32l-0.1,-1.19l-3.59,0.31l-0.58,-6.67l3.58,-0.32zm3.33,18.58c1.4,-0.12 1.87,-1.57 1.75,-3l-0.22,-2.49l-1.89,0.16l0.24,2.69l0.89,-0.08c0.09,1 0,1.81 -0.73,2l-0.04,0.72zm14.1,-21.3l-1.71,14.9l-4.27,-14.38l-1.79,0.16l1.54,17.45l1.2,-0.11l-1.23,-14l4,13.8l1.39,-0.12l1.65,-14.4l1.24,14.14l1.39,-0.12l-1.52,-17.43l-1.89,0.17l0,-0.06zm11.58,16.55l1.6,-0.14l-4.41,-17.16l-1.79,0.16l-1.36,17.68l1.29,-0.11l0.24,-3l3.78,-0.33l0.65,2.9zm-4.45,-3.83l0.74,-11.1l2.65,10.81l-3.39,0.29zm10.77,-6.56l2.72,-8l-1.4,0.12l-2.61,8.05l-0.69,0.06l-0.68,-7.76l-1.6,0.14l1.53,17.43l1.59,-0.14l-0.72,-8.27l1.09,-0.1l3.61,8l1.6,-0.14l-4.44,-9.39zm10.09,-7.4l-0.1,-1.2l-5.08,0.44l1.52,17.43l5.08,-0.44l-0.1,-1.19l-3.49,0.3l-0.63,-7.17l3.58,-0.28l-0.11,-1.2l-3.58,0.31l-0.58,-6.67l3.49,-0.33z" id="Path_3170"/>
      <path d="m151.43,309.6c1.89,-0.17 3.24,-0.79 3,-3.28l-0.38,-4.38c-0.14,-1.59 -1.48,-2 -3.17,-1.83l-0.6,0.05c-1.09,0.1 -1.54,-0.47 -1.63,-1.46l-0.31,-3.59c-0.1,-1.09 0.24,-1.83 1.63,-1.95a1.59,1.59 0 0 1 1.95,1.64l0.22,2.49l1.59,-0.14l-0.21,-2.49c-0.22,-2.49 -1.76,-2.86 -3.65,-2.69s-3.24,0.78 -3,3.27l0.35,4c0.17,1.89 1.4,2.28 3.2,2.13l0.6,-0.06a1.34,1.34 0 0 1 1.58,1l0,0.4l0.34,3.88a1.8,1.8 0 1 1 -3.59,0.31l-0.21,-2.39l-1.59,0.14l0.21,2.39c0.24,2.35 1.78,2.72 3.67,2.56zm9.56,-0.84c1.89,-0.16 3.34,-0.79 3.13,-3.28l-1.27,-14.54l-1.6,0.13l1.27,14.55a1.8,1.8 0 1 1 -3.58,0.31l-1.27,-14.54l-1.6,0.14l1.27,14.54c0.32,2.48 1.76,2.86 3.66,2.69l-0.01,0zm12.44,-1.19l1.59,-0.14l-3.2,-6.84c1.16,-0.5 1.68,-1.45 1.52,-3.24l-0.37,-4.29c-0.22,-2.49 -1.76,-2.86 -3.65,-2.69l-3.29,0.29l1.52,17.43l1.6,-0.14l-0.61,-7l1.79,-0.16l3.1,6.78zm-5.7,-15.86l1.69,-0.14c1.3,-0.12 1.85,0.44 2,1.63l0.4,4.58c0.1,1.1 -0.24,1.83 -1.63,2l-1.7,0.15l-0.76,-8.22zm13.27,-1.15l-0.11,-1.2l-5.08,0.44l1.53,17.43l5.08,-0.44l-0.11,-1.19l-3.58,0.31l-0.63,-7.17l3.58,-0.32l-0.1,-1.19l-3.59,0.31l-0.58,-6.67l3.59,-0.31zm10.85,-2.16l-1.51,9.17l-3.17,-8.76l-1.6,0.14l4,10.8l0.55,6.37l1.6,-0.14l-0.57,-6.47l2.13,-11.23l-1.43,0.12zm7.51,17c1.89,-0.16 3.34,-0.79 3.12,-3.28l-1,-11.75c-0.21,-2.49 -1.75,-2.86 -3.64,-2.7s-3.25,0.79 -3,3.28l1,11.75c0.16,2.6 1.6,2.88 3.5,2.71l0.02,-0.01zm-0.1,-1.09c-1.29,0.11 -1.84,-0.44 -2,-1.64l-1,-11.75c-0.09,-1.1 0.25,-1.83 1.64,-1.95s1.85,0.44 1.95,1.63l1,11.76a1.6,1.6 0 0 1 -1.61,1.96l0.02,-0.01zm9.76,0.25c1.89,-0.17 3.34,-0.8 3.12,-3.29l-1.27,-14.54l-1.59,0.14l1.27,14.54a1.8,1.8 0 0 1 -3.59,0.32l-1.27,-14.55l-1.59,0.14l1.27,14.55c0.3,2.49 1.83,2.85 3.63,2.7l0.02,-0.01zm13.14,-1.15c1.9,-0.17 3.35,-0.79 3.13,-3.28l-0.22,-2.49l-1.59,0.13l0.22,2.49a1.8,1.8 0 0 1 -3.59,0.32l-1,-11.75c-0.09,-1.1 0.25,-1.83 1.64,-1.95a1.59,1.59 0 0 1 2,1.63l0.22,2.49l1.59,-0.14l-0.22,-2.49c-0.21,-2.49 -1.75,-2.85 -3.64,-2.69s-3.25,0.79 -3,3.28l1,11.75c0.11,2.5 1.65,2.87 3.44,2.71l0.02,-0.01zm10,-18.54l0.68,7.87l-3.48,0.3l-0.69,-7.86l-1.59,0.13l1.52,17.43l1.59,-0.13l-0.73,-8.37l3.59,-0.31l0.73,8.36l1.59,-0.14l-1.52,-17.43l-1.69,0.15zm10.16,0.32l-0.1,-1.2l-5.08,0.45l1.52,17.43l5.08,-0.45l-0.11,-1.19l-3.58,0.31l-0.63,-7.17l3.59,-0.31l-0.11,-1.2l-3.58,0.31l-0.58,-6.67l3.58,-0.31zm7.2,15.83c1.9,-0.17 3.35,-0.8 3.13,-3.29l-0.22,-2.49l-1.59,0.14l0.22,2.49a1.8,1.8 0 0 1 -3.59,0.32l-1,-11.76c-0.09,-1.09 0.25,-1.82 1.64,-1.95a1.6,1.6 0 0 1 1.95,1.64l0.22,2.49l1.59,-0.14l-0.22,-2.49c-0.21,-2.49 -1.75,-2.86 -3.64,-2.69s-3.25,0.78 -3,3.27l1,11.76c0.19,2.5 1.73,2.86 3.52,2.68l-0.01,0.02zm9.2,-10.74l2.72,-8l-1.4,0.12l-2.7,8.07l-0.7,0.06l-0.64,-7.73l-1.59,0.14l1.52,17.43l1.59,-0.14l-0.72,-8.27l1.1,-0.09l3.61,8l1.59,-0.14l-4.38,-9.45zm13.68,-8.92l-6.78,0.59l0.11,1.19l2.59,-0.22l1.41,16.23l1.6,-0.14l-1.42,-16.23l2.59,-0.23l-0.1,-1.19zm7.07,-0.62l0.68,7.87l-3.58,0.31l-0.69,-7.87l-1.59,0.14l1.52,17.43l1.59,-0.14l-0.73,-8.37l3.59,-0.31l0.73,8.37l1.59,-0.14l-1.52,-17.43l-1.59,0.14zm10.26,0.31l-0.1,-1.2l-5.08,0.44l1.52,17.43l5.08,-0.44l-0.11,-1.19l-3.58,0.31l-0.63,-7.17l3.59,-0.32l-0.11,-1.19l-3.58,0.31l-0.59,-6.67l3.59,-0.31z" id="Path_3171"/>
      <path d="m130.06,325.81l-3.38,0.3l1.52,17.43l3.39,-0.3c1.89,-0.16 3.34,-0.79 3.12,-3.28l-1,-11.45c-0.22,-2.51 -1.71,-2.86 -3.65,-2.7zm3.06,14.29c0.09,1.1 -0.24,1.83 -1.64,1.95l-1.79,0.16l-1.32,-15l1.8,-0.16c1.29,-0.11 1.84,0.44 2,1.64l0.95,11.41zm10.72,2.07l1.59,-0.14l-3.21,-6.84c1.16,-0.5 1.68,-1.45 1.53,-3.24l-0.37,-4.19c-0.22,-2.49 -1.75,-2.86 -3.65,-2.69l-3.18,0.28l1.52,17.43l1.59,-0.14l-0.61,-7l1.8,-0.16l2.99,6.69zm-5.6,-15.87l1.69,-0.14c1.29,-0.12 1.84,0.44 1.95,1.63l0.4,4.58c0.09,1.1 -0.24,1.83 -1.64,1.95l-1.69,0.15l-0.71,-8.17zm14.36,15.11l1.59,-0.14l-4.41,-17.18l-1.79,0.16l-1.36,17.68l1.29,-0.11l0.24,-3l3.78,-0.33l0.66,2.92zm-4.45,-3.83l0.74,-11.1l2.65,10.81l-3.39,0.29zm16.18,-14.76l-0.62,14.81l-3.37,-14.46l-1.39,0.12l-0.95,14.83l-3.17,-14.47l-1.69,0.15l3.94,17.2l1.8,-0.16l0.77,-14.12l3.21,13.77l1.79,-0.15l0.87,-17.64l-1.19,0.12zm4.9,17.14l1.6,-0.14l-1.52,-17.43l-1.6,0.14l1.52,17.43zm9,-18.36l1.28,14.64l-5.16,-14.3l-1.7,0.15l1.52,17.43l1.2,-0.1l-1.24,-14.25l5.12,13.91l1.7,-0.15l-1.53,-17.43l-1.19,0.1zm11.52,4.32l-0.22,-2.49c-0.22,-2.49 -1.76,-2.86 -3.65,-2.7s-3.24,0.79 -3,3.28l1,11.75c0.22,2.49 1.76,2.86 3.55,2.7s3.34,-0.79 3.13,-3.28l-0.6,-6.77l-3.28,0.28l0.1,1.2l1.79,-0.16l0.49,5.58a1.58,1.58 0 0 1 -1.63,1.95c-1.3,0.11 -1.85,-0.44 -1.95,-1.64l-1,-11.75c-0.1,-1.1 0.24,-1.83 1.64,-1.95a1.58,1.58 0 0 1 1.94,1.64l0.22,2.49l1.5,-0.13l-0.03,0zm7.34,11.7c1.89,-0.17 3.24,-0.79 3,-3.28l-0.39,-4.48c-0.14,-1.59 -1.48,-2 -3.18,-1.83l-0.59,0.05c-1.1,0.1 -1.55,-0.46 -1.64,-1.46l-0.31,-3.59c-0.09,-1.09 0.24,-1.82 1.64,-1.94a1.59,1.59 0 0 1 1.95,1.63l0.21,2.49l1.6,-0.14l-0.22,-2.49c-0.22,-2.49 -1.75,-2.86 -3.65,-2.69s-3.24,0.79 -3,3.28l0.34,4c0.17,1.89 1.41,2.29 3.2,2.13l0.6,0a1.34,1.34 0 0 1 1.59,1l0,0.4l0.34,3.88c0.1,1.1 -0.24,1.83 -1.63,1.95s-1.85,-0.44 -1.95,-1.63l-0.21,-2.39l-1.5,0.13l0.21,2.39c0.3,2.38 1.84,2.75 3.63,2.59l-0.04,0zm21.68,-19.56l-0.62,14.81l-3.37,-14.46l-1.39,0.12l-0.91,14.83l-3.18,-14.47l-1.59,0.14l3.91,17.22l1.8,-0.16l0.77,-14.12l3.21,13.77l1.89,-0.16l0.87,-17.64l-1.39,0.12zm8.37,0.48l-0.11,-1.2l-5.08,0.44l1.53,17.43l5.08,-0.44l-0.11,-1.19l-3.58,0.31l-0.63,-7.17l3.59,-0.32l-0.11,-1.19l-3.58,0.31l-0.59,-6.67l3.59,-0.31zm12.47,15.26l1.6,-0.13l-4.42,-17.18l-1.79,0.15l-1.36,17.69l1.29,-0.12l0.24,-3l3.78,-0.33l0.66,2.92zm-4.41,-3.8l0.74,-11.11l2.65,10.81l-3.39,0.3zm9.8,-14.21l-3.38,0.3l1.52,17.43l3.38,-0.3c1.8,-0.15 3.25,-0.78 3,-3.27l-1,-11.45c-0.19,-2.5 -1.73,-2.88 -3.52,-2.73l0,0.02zm3,14.3c0.09,1.09 -0.25,1.83 -1.64,1.95l-1.79,0.15l-1.32,-15l1.75,-0.19a1.56,1.56 0 0 1 2,1.63l1,11.46zm6.8,-15.15l-3.38,0.3l1.52,17.43l3.38,-0.3c1.9,-0.16 3.35,-0.79 3.13,-3.28l-1,-11.46c-0.26,-2.51 -1.8,-2.87 -3.69,-2.71l0.04,0.02zm3.06,14.29c0.09,1.09 -0.25,1.82 -1.64,2l-1.79,0.15l-1.32,-15l1.8,-0.15c1.29,-0.12 1.84,0.44 1.95,1.63l1,11.37zm8.5,-14.09l-0.1,-1.2l-5.08,0.44l1.52,17.43l5.08,-0.44l-0.11,-1.19l-3.58,0.31l-0.63,-7.17l3.54,-0.32l-0.11,-1.19l-3.58,0.31l-0.58,-6.67l3.58,-0.31l0.05,0zm6.07,-1.74l-3.38,0.3l1.52,17.43l3.38,-0.3c1.9,-0.16 3.35,-0.79 3.13,-3.28l-1,-11.46c-0.36,-2.5 -1.9,-2.86 -3.69,-2.71l0.04,0.02zm3,14.3c0.09,1.09 -0.25,1.82 -1.64,1.95l-1.79,0.15l-1.32,-15l1.8,-0.15c1.29,-0.12 1.84,0.44 2,1.63l0.95,11.42zm7.13,2.38l0.9,-0.07c1.89,-0.17 3.34,-0.8 3.12,-3.29l-1.26,-14.44l-1.59,0.14l1.26,14.44c0.09,1.1 -0.24,1.83 -1.64,2l-0.89,0.08l0.1,1.14zm10.67,-0.83c1.89,-0.16 3.34,-0.79 3.12,-3.28l-1.35,-14.56l-1.59,0.14l1.27,14.54a1.8,1.8 0 1 1 -3.59,0.31l-1.27,-14.54l-1.59,0.14l1.27,14.54c0.32,2.46 1.85,2.85 3.65,2.69l0.08,0.02zm9.66,-0.84c1.89,-0.17 3.34,-0.8 3.12,-3.29l-0.38,-4.38c-0.14,-1.59 -1.48,-2 -3.17,-1.83l-0.6,0.05c-1.09,0.1 -1.55,-0.46 -1.63,-1.46l-0.32,-3.58c-0.09,-1.1 0.25,-1.83 1.64,-1.95a1.59,1.59 0 0 1 1.95,1.63l0.22,2.49l1.59,-0.14l-0.22,-2.49c-0.21,-2.49 -1.75,-2.85 -3.64,-2.69s-3.25,0.79 -3,3.28l0.35,4c0.16,1.89 1.4,2.29 3.2,2.13l0.59,-0.05a1.34,1.34 0 0 1 1.59,1l0,0.4l0.34,3.88c0.09,1.1 -0.24,1.83 -1.64,1.95a1.59,1.59 0 0 1 -1.95,-1.63l-0.21,-2.39l-1.59,0.14l0.21,2.39c0.04,2.32 1.57,2.68 3.47,2.52l0.08,0.02zm10.11,-18.58l-6.77,0.59l0.1,1.2l2.59,-0.23l1.42,16.24l1.59,-0.14l-1.42,-16.24l2.59,-0.22l-0.1,-1.2z" id="Path_3172"/>
      <path d="m146.59,357.59l-0.11,-1.2l-5.08,0.45l1.53,17.43l1.59,-0.14l-0.73,-8.37l3.59,-0.31l-0.11,-1.2l-3.58,0.32l-0.59,-6.68l3.49,-0.3zm7.1,15.84c1.89,-0.17 3.35,-0.8 3.13,-3.29l-1,-11.75c-0.22,-2.49 -1.75,-2.86 -3.65,-2.69s-3.24,0.78 -3,3.27l1,11.76c0.2,2.59 1.73,2.85 3.52,2.7zm-0.09,-1.1a1.58,1.58 0 0 1 -1.95,-1.63l-1,-11.76a1.59,1.59 0 0 1 1.64,-1.95a1.56,1.56 0 0 1 2,1.64l1,11.75c0.04,1.1 -0.29,1.83 -1.69,1.95zm12.43,-0.08l1.6,-0.14l-3.21,-6.84c1.16,-0.51 1.68,-1.46 1.52,-3.25l-0.36,-4.18c-0.22,-2.49 -1.76,-2.86 -3.55,-2.7l-3.29,0.28l1.53,17.43l1.49,-0.13l-0.61,-7l1.79,-0.16l3.09,6.69zm-5.7,-15.86l1.7,-0.15c1.29,-0.11 1.84,0.44 1.95,1.64l0.4,4.58a1.6,1.6 0 0 1 -1.64,2l-1.69,0.15l-0.72,-8.22zm16.43,-2.64l-1.51,9.16l-3.17,-8.75l-1.69,0.15l4,10.79l0.56,6.38l1.59,-0.14l-0.56,-6.48l2.13,-11.22l-1.35,0.11zm7.41,17c1.89,-0.17 3.34,-0.8 3.13,-3.29l-1,-11.75c-0.22,-2.49 -1.76,-2.86 -3.65,-2.69s-3.24,0.78 -3,3.27l1,11.76c0.2,2.6 1.73,2.87 3.52,2.72l0,-0.02zm-0.1,-1.1a1.6,1.6 0 0 1 -1.95,-1.64l-1,-11.75a1.59,1.59 0 0 1 1.63,-1.95c1.3,-0.11 1.85,0.44 2,1.64l1,11.75c0.06,1.12 -0.28,1.85 -1.68,1.97l0,-0.02zm9.86,0.24c1.89,-0.16 3.34,-0.79 3.13,-3.28l-1.27,-14.54l-1.6,0.14l1.27,14.54a1.59,1.59 0 0 1 -1.63,2c-1.3,0.11 -1.85,-0.44 -2,-1.64l-1.27,-14.54l-1.6,0.14l1.27,14.54c0.27,2.46 1.77,2.83 3.7,2.66l0,-0.02zm10,-1l1.6,-0.14l-1.53,-17.43l-1.59,0.14l1.52,17.43zm9,-18.36l1.28,14.64l-5.17,-14.3l-1.59,0.14l1.52,17.43l1.2,-0.1l-1.17,-14.2l5.13,13.91l1.59,-0.14l-1.52,-17.43l-1.27,0.05zm13.44,-1.17l-6.77,0.59l0.1,1.2l2.59,-0.23l1.42,16.23l1.6,-0.14l-1.31,-16.18l2.59,-0.23l-0.11,-1.19l-0.11,-0.05zm7.07,-0.62l0.69,7.87l-3.58,0.31l-0.55,-7.82l-1.6,0.14l1.53,17.43l1.59,-0.14l-0.73,-8.36l3.59,-0.32l0.73,8.37l1.59,-0.14l-1.52,-17.43l-1.74,0.09zm10.27,0.31l-0.11,-1.2l-5.08,0.45l1.53,17.43l5.08,-0.45l-0.11,-1.19l-3.58,0.31l-0.63,-7.17l3.59,-0.31l-0.11,-1.2l-3.58,0.31l-0.59,-6.67l3.59,-0.31zm10.59,15.53c1.89,-0.16 3.34,-0.79 3.12,-3.28l-0.38,-4.38c-0.14,-1.6 -1.48,-2 -3.17,-1.83l-0.6,0.05c-1.09,0.09 -1.54,-0.47 -1.63,-1.47l-0.31,-3.58c-0.1,-1.1 0.24,-1.83 1.63,-1.95a1.59,1.59 0 0 1 1.95,1.64l0.22,2.49l1.59,-0.14l-0.22,-2.49c-0.21,-2.49 -1.75,-2.86 -3.64,-2.7s-3.25,0.79 -3,3.28l0.35,4c0.16,1.9 1.4,2.29 3.2,2.13l0.59,-0.05a1.34,1.34 0 0 1 1.59,1l0,0.39l0.34,3.89c0.09,1.09 -0.24,1.83 -1.64,1.95s-1.84,-0.44 -1.95,-1.64l-0.22,-2.49l-1.59,0.14l0.21,2.39c0.32,2.49 1.85,2.86 3.65,2.7l-0.09,-0.05zm10.32,-18.56l-6.77,0.59l0.1,1.19l2.59,-0.22l1.42,16.23l1.59,-0.14l-1.42,-16.23l2.59,-0.23l-0.1,-1.19zm7.77,-0.68l-1.39,9.21l-3.17,-8.75l-1.6,0.14l4,10.79l0.55,6.38l1.6,-0.14l-0.57,-6.48l2.13,-11.22l-1.55,0.07zm6.3,15.81l-1.33,-16.15l-1.6,0.14l1.53,17.43l5.08,-0.44l-0.11,-1.2l-3.57,0.22zm5.58,0.71l1.59,-0.13l-1.52,-17.43l-1.59,0.13l1.52,17.43zm9,-18.35l1.28,14.64l-5.16,-14.3l-1.59,0.14l1.52,17.43l1.19,-0.1l-1.24,-14.25l5.25,13.93l1.59,-0.14l-1.52,-17.43l-1.32,0.08zm11.52,4.32l-0.22,-2.49c-0.21,-2.49 -1.75,-2.86 -3.64,-2.7s-3.25,0.79 -3,3.28l1,11.75c0.21,2.49 1.75,2.86 3.54,2.7s3.35,-0.79 3.13,-3.28l-0.59,-6.77l-3.39,0.29l0.11,1.2l1.79,-0.16l0.49,5.58a1.6,1.6 0 0 1 -1.64,2c-1.3,0.11 -1.85,-0.44 -1.95,-1.64l-1,-11.75c-0.09,-1.1 0.25,-1.83 1.64,-1.95a1.59,1.59 0 0 1 2,1.63l0.22,2.49l1.59,-0.13l-0.08,-0.05z" id="Path_3173"/>
      <path d="m204.08,401c1.89,-0.16 3.24,-0.78 3,-3.27l-0.39,-4.49c-0.14,-1.59 -1.48,-2 -3.17,-1.83l-0.6,0.06c-1.09,0.09 -1.54,-0.47 -1.63,-1.47l-0.31,-3.58a1.8,1.8 0 0 1 3.58,-0.32l0.22,2.49l1.59,-0.13l-0.21,-2.49c-0.22,-2.49 -1.76,-2.86 -3.65,-2.7s-3.25,0.79 -3,3.28l0.35,4c0.17,1.89 1.4,2.29 3.2,2.13l0.59,-0.05a1.34,1.34 0 0 1 1.59,1l0,0.4l0.34,3.89c0.09,1.09 -0.24,1.82 -1.64,2s-1.84,-0.44 -1.95,-1.64l-0.21,-2.39l-1.59,0.14l0.21,2.39c0.35,2.41 1.88,2.78 3.68,2.58zm10.12,-17.3l-0.1,-1.2l-5.1,0.5l1.52,17.43l5.08,-0.45l-0.1,-1.19l-3.59,0.31l-0.63,-7.17l3.59,-0.31l-0.1,-1.2l-3.59,0.31l-0.58,-6.67l3.58,-0.31l0.02,-0.05zm7.21,15.83c1.89,-0.17 3.34,-0.8 3.12,-3.29l-0.22,-2.49l-1.59,0.14l0.22,2.49a1.59,1.59 0 0 1 -1.64,1.95c-1.29,0.12 -1.84,-0.44 -2,-1.63l-1,-11.76c-0.1,-1.09 0.24,-1.82 1.63,-1.95a1.59,1.59 0 0 1 1.95,1.64l0.22,2.49l1.59,-0.14l-0.21,-2.49c-0.22,-2.49 -1.76,-2.86 -3.65,-2.69s-3.25,0.78 -3,3.27l1,11.76c0.25,2.49 1.78,2.85 3.58,2.7zm10.12,-18.53l-6.77,0.59l0.1,1.2l2.59,-0.23l1.42,16.24l1.59,-0.14l-1.46,-16.26l2.59,-0.22l-0.1,-1.2l0.04,0.02zm3.47,17.24l1.6,-0.14l-1.53,-17.43l-1.59,0.14l1.52,17.43zm8.18,-0.62c1.89,-0.16 3.34,-0.79 3.12,-3.28l-1,-11.75c-0.22,-2.49 -1.76,-2.86 -3.65,-2.7s-3.24,0.79 -3,3.28l1,11.75c0.15,2.6 1.68,2.87 3.57,2.7l-0.04,0zm-0.1,-1.09a1.6,1.6 0 0 1 -2,-1.64l-1,-11.75a1.58,1.58 0 0 1 1.63,-1.95c1.3,-0.11 1.85,0.44 1.95,1.64l1,11.75a1.59,1.59 0 0 1 -1.54,1.95l-0.04,0zm10.52,-17.48l1.28,14.64l-5.16,-14.3l-1.6,0.14l1.56,17.47l1.2,-0.11l-1.24,-14.24l5.12,13.9l1.6,-0.14l-1.52,-17.43l-1.24,0.07zm6.21,17.12a1.1,1.1 0 1 0 -0.19,-2.19l0,0a1.1,1.1 0 0 0 0.19,2.19z" id="Path_3174"/>
      <g id="Group_253">
       <path d="m228.36,186.71l-32.27,2.82a4.81,4.81 0 0 1 -5.35,-3.75a3.83,3.83 0 0 1 3,-4.48a3.08,3.08 0 0 1 3.63,2.5a2.59,2.59 0 0 1 -2.05,3l0,0a2.24,2.24 0 0 1 -2.57,-1.79l0,0c0,-0.2 0.16,-0.51 0.36,-0.53l0,0c0.2,0 0.51,0.06 0.53,0.35l0,0a1.25,1.25 0 0 0 1.49,1l0,0a1.67,1.67 0 0 0 1.34,-1.93l0,0a2.24,2.24 0 0 0 -2.57,-1.78a2.92,2.92 0 0 0 -2.31,3.41l0,0a4,4 0 0 0 4.38,3l32.27,-2.81a3.94,3.94 0 0 0 3.79,-3.75a2.91,2.91 0 0 0 -2.87,-3l0,0a2.23,2.23 0 0 0 -2.21,2.2a1.6,1.6 0 0 0 1.65,1.66a1.25,1.25 0 0 0 1.3,-1.21l0,0a0.45,0.45 0 0 1 0.46,-0.44l0,0c0.3,0 0.41,0.16 0.44,0.46l0,0a2.23,2.23 0 0 1 -2.22,2.2l0,0a2.51,2.51 0 0 1 -2.53,-2.59a3.11,3.11 0 0 1 3.14,-3.08a3.81,3.81 0 0 1 3.75,3.88a4.81,4.81 0 0 1 -4.61,4.62" id="Path_3157"/>
       <path d="m195.44,197l-0.3,0a3.82,3.82 0 0 1 -3.75,-3.89l0,0a4.81,4.81 0 0 1 4.61,-4.62l32.27,-2.81a4.81,4.81 0 0 1 5.35,3.74a3.82,3.82 0 0 1 -3,4.48l0,0a3.06,3.06 0 0 1 -3.63,-2.49l0,0a2.58,2.58 0 0 1 2,-3a2.24,2.24 0 0 1 2.57,1.78l0,0a0.47,0.47 0 0 1 -0.36,0.54a0.69,0.69 0 0 1 -0.53,-0.36a1.24,1.24 0 0 0 -1.49,-1a1.67,1.67 0 0 0 -1.34,1.92a2.23,2.23 0 0 0 2.57,1.78a2.91,2.91 0 0 0 2.31,-3.41a4,4 0 0 0 -4.38,-3l-32.27,2.82a3.94,3.94 0 0 0 -3.79,3.74a2.91,2.91 0 0 0 2.87,3l0,0a2.23,2.23 0 0 0 2.22,-2.2a1.62,1.62 0 0 0 -1.65,-1.66a1.24,1.24 0 0 0 -1.3,1.22a0.47,0.47 0 0 1 -0.47,0.44l0,0c-0.3,0 -0.41,-0.16 -0.44,-0.46l0,0a2.22,2.22 0 0 1 2.22,-2.2l0,0a2.5,2.5 0 0 1 2.53,2.59a3.06,3.06 0 0 1 -2.84,3" id="Path_3158"/>
       <path d="m183,190.27l-13.55,1.19a0.46,0.46 0 0 1 -0.53,-0.36a0.44,0.44 0 0 1 0.35,-0.53l0,0l13.65,-1.19a0.45,0.45 0 0 1 0.53,0.35a0.46,0.46 0 0 1 -0.45,0.54l0,0" id="Path_3159"/>
       <path d="m185,192a2.15,2.15 0 1 1 -0.48,-4.28l0.2,0c0.9,-0.08 9.79,0.65 10.81,0.76c0.19,0 0.42,0.26 0.44,0.46s-0.18,0.32 -0.37,0.43c-1.07,0.3 -9.61,2.55 -10.6,2.64m-0.29,-3.29a1.2,1.2 0 0 0 0.21,2.39c0.49,0 4.33,-1 7.76,-1.88c-3.54,-0.29 -7.37,-0.56 -8,-0.51" id="Path_3160"/>
       <path d="m256.31,183.87l-13.64,1.19a0.47,0.47 0 0 1 -0.54,-0.35a0.47,0.47 0 0 1 0.36,-0.54l0,0l13.64,-1.17a0.47,0.47 0 0 1 0.54,0.36c0.12,0.29 -0.06,0.5 -0.36,0.53l0,0" id="Path_3161"/>
       <path d="m241,187.11c-0.9,0.08 -9.79,-0.65 -10.81,-0.76c-0.19,0 -0.42,-0.27 -0.44,-0.47s0.18,-0.31 0.37,-0.43c1,-0.29 9.51,-2.54 10.51,-2.62a2.22,2.22 0 0 1 2.38,2a2.13,2.13 0 0 1 -2,2.28l0,0m-8,-1.4c3.54,0.29 7.47,0.55 8,0.5a1.21,1.21 0 0 0 1.09,-1.3a1.3,1.3 0 0 0 -1.3,-1.09c-0.5,0.05 -4.33,1 -7.76,1.89" id="Path_3162"/>
      </g>
      <g id="Group_252">
       <g id="Group_251-2">
        <path d="m327.64,28.76a37.35,37.35 0 0 0 24.85,18l38.83,444.51a37.42,37.42 0 0 0 -21.36,22" class="cls-4" id="Path_3163-2"/>
        <path d="m117.87,535.23a37.39,37.39 0 0 0 -24.86,-18l-38.83,-444.52a37.38,37.38 0 0 0 21.36,-22" class="cls-4" id="Path_3164-2"/>
       </g>
      </g>
     </g>
     <g id="Component_2_1">
      <g id="Rectangle_79">
       <path id="svg_36" d="m139.64,449.34l193.22,-16.88a5,5 0 0 1 5.42,4.55l3.39,38.84a5,5 0 0 1 -4.55,5.42l-193.22,16.87a4.93,4.93 0 0 1 -5.41,-4.54l-3.4,-38.84a5,5 0 0 1 4.55,-5.42z" class="cls-5"/>
       <path id="svg_37" d="m139.68,449.84l193.23,-16.84a4.48,4.48 0 0 1 4.87,4.09l3.39,38.85a4.48,4.48 0 0 1 -4.09,4.87l-193.22,16.84a4.49,4.49 0 0 1 -4.88,-4.09l-3.39,-38.85a4.48,4.48 0 0 1 4.09,-4.87z" class="cls-6"/>
      </g>
      <path d="m227.37,470.28a5.36,5.36 0 0 0 0.86,-1.68c0,-0.2 -0.13,-0.39 -0.33,-0.37a0.52,0.52 0 0 0 -0.37,0.33c-2.7,4.75 -6.88,7.43 -11,7.78c-3.78,0.33 -5.84,-1.39 -6.13,-4.68c-0.31,-3.59 2.34,-6.53 5.21,-8.18a5.64,5.64 0 0 0 4.21,1.13c1.5,-0.13 2.74,-0.84 2.66,-1.73c-0.1,-1.2 -1.25,-1.7 -2.94,-1.55a13.09,13.09 0 0 0 -2.76,0.54a3.41,3.41 0 0 1 -0.33,-1.38c-0.37,-4.28 4.23,-7.89 9.41,-8.35c3,-0.26 4.7,0.9 4.83,2.39c0.22,2.59 -2.83,4.36 -5.28,5.08c-0.49,0.14 -0.79,0.17 -0.76,0.47s0.22,0.28 0.52,0.25c1.69,-0.14 6.62,-2.38 6.31,-5.87c-0.16,-1.89 -2.1,-3.43 -6.09,-3.08c-5.77,0.51 -11.74,4.64 -11.31,9.52a4.12,4.12 0 0 0 0.66,1.85c-3.85,1.84 -7.17,5.24 -6.79,9.52c0.29,3.39 3.78,5.39 8.36,5a14.52,14.52 0 0 0 11.06,-6.99zm-7.53,-8.17c1.09,-0.1 1.82,0.24 1.89,0.94s-0.52,1 -1.41,1.12a3.66,3.66 0 0 1 -3.13,-1.33a8.26,8.26 0 0 1 2.65,-0.73zm22.24,5.28a0.27,0.27 0 0 0 -0.33,-0.27l0,0c-0.1,0 -0.19,0.11 -0.28,0.22c-1.73,3.16 -3.38,4.91 -5.08,5.06c-0.7,0.06 -1,-0.41 -1.1,-1.11c-0.23,-2.69 2.08,-6.1 3,-7.69a1.48,1.48 0 0 0 0.17,-0.41c0,-0.4 -0.56,-0.66 -1.26,-0.6c-1.69,0.15 -3.87,2.75 -5.39,4.89s-2.76,4 -3.06,4.08a0.22,0.22 0 0 1 -0.22,-0.18c-0.06,-0.7 1.13,-3.21 3.38,-6.22a0.83,0.83 0 0 0 0.24,-0.62c0,-0.4 -0.45,-0.56 -0.85,-0.53a1.71,1.71 0 0 0 -1.15,0.6c-2.14,3 -4.13,6.69 -4,8.18a1,1 0 0 0 1,1.12l0.2,0c1.19,-0.1 2.84,-3.06 5,-6a23.65,23.65 0 0 1 3.66,-4c-1.15,1.81 -2.89,4.87 -2.69,7.06a2.23,2.23 0 0 0 2.3,2.21l0.39,0c3.35,-0.13 6.11,-5.29 6.07,-5.79zm8.15,-13.56a3.26,3.26 0 0 0 -2.29,2.61a0.73,0.73 0 0 0 0.66,0.64l0.1,0a3.23,3.23 0 0 0 2.28,-2.61c0.07,-0.41 -0.26,-0.68 -0.75,-0.64zm-12.39,21.36c-1.32,3.22 -2.28,6.12 -2.2,7c0,0.2 0.13,0.29 0.23,0.28c0.69,-0.06 2,-3.48 5.14,-10.08c1.53,-3.14 3.17,-6.2 5,-9.27a1.56,1.56 0 0 0 0.15,-0.61a0.71,0.71 0 0 0 -0.86,-0.63l-0.1,0a1.67,1.67 0 0 0 -1.23,0.81a127.78,127.78 0 0 0 -6.13,12.5zm27.24,-13.32c0,-0.2 -0.13,-0.29 -0.23,-0.28a0.36,0.36 0 0 0 -0.29,0.12a10.4,10.4 0 0 1 -6.25,3.16a2.28,2.28 0 0 0 0,-0.81a1.07,1.07 0 0 0 -0.68,-0.94l0,-0.5c-0.09,-1 -1.07,-1.91 -2.77,-1.77c-3.38,0.3 -7.92,4.71 -7.58,8.59a3.21,3.21 0 0 0 3.28,3l0.4,0c3,-0.27 6.1,-3.65 7.05,-6.54c3.77,-0.43 7.13,-3.33 7.07,-4.03zm-15.59,7.68c-0.29,-3.28 3.14,-7.7 5.53,-7.91c1.1,-0.09 1.74,0.35 1.73,1.36l-0.1,0a1.53,1.53 0 0 0 -1.47,1.53l0,0.1a1.4,1.4 0 0 0 1.32,1.29c-0.75,2.87 -3.33,5.51 -5.12,5.67c-1.21,0 -1.78,-0.75 -1.89,-2.05l0,0.01zm17.66,8a13.18,13.18 0 0 0 0.84,-5.29c0.38,-0.23 0.86,-0.57 1.24,-0.81a19.74,19.74 0 0 0 3.77,-3.25a10.51,10.51 0 0 0 2.37,-3.82c0,-0.19 -0.12,-0.29 -0.22,-0.28a0.52,0.52 0 0 0 -0.38,0.24a18.23,18.23 0 0 1 -5.86,6.43a4.69,4.69 0 0 1 -1,0.59a20.14,20.14 0 0 1 0.65,-4.08a32.73,32.73 0 0 0 4.29,-6.09a3.34,3.34 0 0 0 0.37,-1.44c0,-0.3 -0.14,-0.49 -0.44,-0.46c-1.59,0.14 -4,4.36 -5.21,8.08c-1.1,1.2 -2.2,2.4 -3.2,2.49c-0.8,0.07 -1.14,-0.4 -1.23,-1.5c-0.16,-1.79 1,-4.11 2.84,-6.47a1.86,1.86 0 0 0 0.33,-0.83a0.76,0.76 0 0 0 -0.76,-0.64l0,0c-0.49,0 -0.88,0.18 -1.51,1c-1.36,1.72 -3,4.77 -2.8,7a2.35,2.35 0 0 0 2.49,2.19l0.3,0a5.39,5.39 0 0 0 3.25,-1.89c-0.29,1.23 -0.6,2.36 -0.9,3.49c-4.71,2.42 -9.07,3 -8.78,6.29c0.15,1.79 2.25,2.81 4.14,2.65a5.44,5.44 0 0 0 5.41,-3.59l0,-0.01zm-8.15,1.11c-0.25,-2.89 2.91,-3.37 7.15,-5.45a36.62,36.62 0 0 1 -1.19,4.72a4.21,4.21 0 0 1 -3.27,2.8a2.12,2.12 0 0 1 -2.55,-1.59a0.69,0.69 0 0 1 -0.14,-0.48z" id="Path_3175"/>
     </g>
    </g>
   </g>
  </g>
 </g>
</svg>