<svg xmlns="http://www.w3.org/2000/svg" xmlns:xlink="http://www.w3.org/1999/xlink" width="133.585" height="175.144" viewBox="0 0 133.585 175.144">
  <defs>
    <clipPath id="clip-path">
      <rect id="Rectangle_94" data-name="Rectangle 94" width="133.585" height="175.144" fill="none"/>
    </clipPath>
  </defs>
  <g id="Group_260" data-name="Group 260" transform="translate(0 0)">
    <g id="Group_259" data-name="Group 259" transform="translate(0 0)" clip-path="url(#clip-path)">
      <path id="Path_3167" data-name="Path 3167" d="M5.17,10.083c1.745,17.924,4.457,35.57,9.4,52.525a181.823,181.823,0,0,0,9.179,24.668,135.322,135.322,0,0,0,12.946,22.637,108.411,108.411,0,0,0,17.171,19.393,104.244,104.244,0,0,0,21.254,14.8c15.405,8.133,32.97,12.075,50.945,12.927a97.534,97.534,0,0,1-77.226-21.942,111.565,111.565,0,0,1-18.749-20.512A134.944,134.944,0,0,1,16.757,90.356,152.925,152.925,0,0,1,8.476,64.172,177.749,177.749,0,0,1,5.17,10.083" transform="translate(7.519 17.107)" fill="#ffde00"/>
      <path id="Path_3168" data-name="Path 3168" d="M0,34.067a78.9,78.9,0,0,1,1.515-8.2c.631-2.683,1.324-5.336,2.1-7.957C5.161,12.665,6.984,7.539,9,2.494a3.967,3.967,0,0,1,7.181-.4l.07.132a195.33,195.33,0,0,1,8.6,18.218c1.289,3.109,2.408,6.307,3.492,9.521a85.157,85.157,0,0,1,2.686,9.937,84.528,84.528,0,0,1-6.482-7.992c-1.979-2.759-3.918-5.539-5.682-8.405A193.924,193.924,0,0,1,9.125,5.875l7.251-.264c-2.211,4.962-4.622,9.842-7.3,14.6-1.34,2.381-2.761,4.73-4.244,7.051A79.64,79.64,0,0,1,0,34.067" transform="translate(0 0.002)" fill="#ffde00"/>
    </g>
  </g>
</svg>
