<svg xmlns="http://www.w3.org/2000/svg" width="166.576" height="51.463" viewBox="0 0 166.576 51.463">
  <path id="PRIME_VIDEO" data-name="PRIME VIDEO" d="M40.788,33.691a1.2,1.2,0,0,1-.373-.679v-.263a.731.731,0,0,1,.737-.638,1.164,1.164,0,0,1,.614.2,81.4,81.4,0,0,0,43,12.364,79.853,79.853,0,0,0,32.8-7.278c1.607-.736,2.953,1.147,1.381,2.413-9.513,7.606-23.305,11.653-35.181,11.653A60.985,60.985,0,0,1,40.788,33.691ZM119.937,47.45c1.148-3.09,3.717-10.027,2.5-11.709s-8.044-.8-11.105-.406c-.475.06-.744-.135-.784-.426v-.157a1.286,1.286,0,0,1,.549-.8,16.242,16.242,0,0,1,9.654-2.849c2.9,0,5.243.624,5.742,1.292,1.048,1.393-.27,11.053-5.376,15.659a1.212,1.212,0,0,1-.774.37C119.944,48.421,119.716,48.048,119.937,47.45ZM.8,30.449a.875.875,0,0,1-.6-.176A.828.828,0,0,1,0,29.65V8.316a.827.827,0,0,1,.191-.624.875.875,0,0,1,.6-.176h2.29a.824.824,0,0,1,.89.7l.223.832A7.023,7.023,0,0,1,6.5,7.58a7.309,7.309,0,0,1,2.751-.544,5.9,5.9,0,0,1,4.882,2.271,9.636,9.636,0,0,1,1.8,6.141,11.239,11.239,0,0,1-.89,4.638,7.253,7.253,0,0,1-2.417,3.055,5.939,5.939,0,0,1-3.5,1.071A7.4,7.4,0,0,1,6.647,23.8a5.953,5.953,0,0,1-2-1.152v7a.879.879,0,0,1-.175.624.866.866,0,0,1-.62.176ZM4.643,11.418V19.83a5.816,5.816,0,0,0,3.117.864,2.97,2.97,0,0,0,2.624-1.216,6.852,6.852,0,0,0,.843-3.838,7.035,7.035,0,0,0-.827-3.87,2.964,2.964,0,0,0-2.64-1.216A6.032,6.032,0,0,0,4.643,11.418ZM135.982,22.141c-1.04-1.064-2.02-3.039-2.02-6.424a9,9,0,0,1,2.259-6.329,7.6,7.6,0,0,1,5.556-2.223c2.523,0,4.018.576,5.163,1.727a4.8,4.8,0,0,1,1.338,3.307,4.728,4.728,0,0,1-.431,2.306,3.734,3.734,0,0,1-.89,1.17c-1.876,1.726-5.552,1.612-6.8,1.541l-2.014-.308a4.156,4.156,0,0,0,1.377,3.131,5.314,5.314,0,0,0,3.484.837,15.069,15.069,0,0,0,3.655-.587c.083-.022.246-.064.3-.072a.721.721,0,0,1,.293.014c.17.058.36.22.36.683v1.471a1.344,1.344,0,0,1-.133.72,1.193,1.193,0,0,1-.561.379,13.342,13.342,0,0,1-4.8.89A7.969,7.969,0,0,1,135.982,22.141Zm3.308-10.8a5.036,5.036,0,0,0-1.075,2.791,14.662,14.662,0,0,0,4.107.149,1.836,1.836,0,0,0,1.741-1.9c0-1.56-1.094-2.006-2.441-2.006A3.122,3.122,0,0,0,139.29,11.345Zm-69.739,10.8c-1.04-1.064-2.019-3.039-2.019-6.424A9,9,0,0,1,69.79,9.388a7.605,7.605,0,0,1,5.556-2.223c2.522,0,4.018.576,5.163,1.727A4.8,4.8,0,0,1,81.848,12.2a4.728,4.728,0,0,1-.431,2.306,3.732,3.732,0,0,1-.89,1.17c-1.876,1.726-5.552,1.612-6.8,1.541l-2.014-.308A4.156,4.156,0,0,0,73.1,20.037a5.314,5.314,0,0,0,3.484.837,15.074,15.074,0,0,0,3.655-.587c.083-.022.245-.064.3-.072a.721.721,0,0,1,.293.014c.169.058.36.22.36.683v1.471a1.343,1.343,0,0,1-.134.72,1.194,1.194,0,0,1-.561.379,13.34,13.34,0,0,1-4.8.89A7.97,7.97,0,0,1,69.551,22.141Zm3.309-10.8a5.032,5.032,0,0,0-1.075,2.791,14.662,14.662,0,0,0,4.107.149,1.836,1.836,0,0,0,1.741-1.9c0-1.56-1.094-2.006-2.441-2.006A3.12,3.12,0,0,0,72.859,11.345Zm79.755,10.708a9,9,0,0,1-2.131-6.381,8.953,8.953,0,0,1,2.131-6.349,8.794,8.794,0,0,1,11.831,0,8.953,8.953,0,0,1,2.131,6.349,9,9,0,0,1-2.131,6.381,8.794,8.794,0,0,1-11.831,0Zm2.576-6.381q0,5.085,3.339,5.085t3.34-5.085q0-5.054-3.34-5.054T155.191,15.673Zm-37.019,7.469a6.779,6.779,0,0,1-2.337-2.975,11.132,11.132,0,0,1-.811-4.4A9.977,9.977,0,0,1,116.9,9.419a6.005,6.005,0,0,1,4.962-2.383,6.875,6.875,0,0,1,4.357,1.439V.991a.828.828,0,0,1,.191-.624.874.874,0,0,1,.6-.176h3.053a.865.865,0,0,1,.62.176.876.876,0,0,1,.175.624V23.061a.885.885,0,0,1-.175.608.815.815,0,0,1-.62.192h-2.544a.941.941,0,0,1-.588-.16.951.951,0,0,1-.3-.543l-.191-.736a6.72,6.72,0,0,1-4.675,1.791A6.1,6.1,0,0,1,118.171,23.141Zm2.386-11.323a7.063,7.063,0,0,0-.827,3.822,6.673,6.673,0,0,0,.875,3.806,3.059,3.059,0,0,0,2.687,1.248,5.347,5.347,0,0,0,2.926-.9V11.354a6.128,6.128,0,0,0-3.148-.8A2.8,2.8,0,0,0,120.557,11.818ZM108.191,23.86a.822.822,0,0,1-.6-.192.834.834,0,0,1-.191-.608V8.316a.826.826,0,0,1,.191-.624.874.874,0,0,1,.6-.176h3.053a.868.868,0,0,1,.62.176.879.879,0,0,1,.175.624V23.061a.887.887,0,0,1-.175.608.816.816,0,0,1-.62.192Zm-12.345,0a1.466,1.466,0,0,1-.525-.08.819.819,0,0,1-.35-.256,1.879,1.879,0,0,1-.27-.5L89.263,8.8c-.063-.17-.117-.32-.159-.448A1.114,1.114,0,0,1,89.041,8q0-.48.636-.48h3.18a1.189,1.189,0,0,1,.748.192,1.229,1.229,0,0,1,.366.64L97.247,19.67l3.339-11.322a1.229,1.229,0,0,1,.366-.64,1.187,1.187,0,0,1,.747-.192h3.085q.636,0,.636.48a1.141,1.141,0,0,1-.063.352c-.043.128-.1.277-.159.448L99.758,23.029a1.9,1.9,0,0,1-.27.5.847.847,0,0,1-.334.256,1.45,1.45,0,0,1-.541.08Zm-34.91,0a.822.822,0,0,1-.6-.192.833.833,0,0,1-.191-.608V12.794q0-2.175-1.94-2.175a8.022,8.022,0,0,0-3.467.832V23.061a.886.886,0,0,1-.175.608.816.816,0,0,1-.62.192H50.886a.822.822,0,0,1-.6-.192.834.834,0,0,1-.191-.608V12.794q0-2.175-1.94-2.175a7.706,7.706,0,0,0-3.5.864V23.061a.885.885,0,0,1-.175.608.816.816,0,0,1-.62.192H40.8a.823.823,0,0,1-.6-.192.834.834,0,0,1-.191-.608V8.316a.827.827,0,0,1,.191-.624.875.875,0,0,1,.6-.176h2.29a.824.824,0,0,1,.89.7l.255.864A13.693,13.693,0,0,1,47.276,7.5a8.532,8.532,0,0,1,2.783-.463A4.273,4.273,0,0,1,54.1,9.083a13,13,0,0,1,3.053-1.567,9.251,9.251,0,0,1,2.958-.48A4.615,4.615,0,0,1,63.56,8.284a4.766,4.766,0,0,1,1.224,3.486V23.061a.884.884,0,0,1-.175.608.815.815,0,0,1-.62.192Zm-28.647,0a.822.822,0,0,1-.6-.192.835.835,0,0,1-.191-.608V8.316a.827.827,0,0,1,.191-.624.874.874,0,0,1,.6-.176h3.053a.866.866,0,0,1,.62.176.876.876,0,0,1,.175.624V23.061a.884.884,0,0,1-.175.608.815.815,0,0,1-.62.192Zm-12.507,0a.822.822,0,0,1-.6-.192.835.835,0,0,1-.191-.608V8.316a.827.827,0,0,1,.191-.624.874.874,0,0,1,.6-.176h2.29a.824.824,0,0,1,.891.7l.413,1.727a9.1,9.1,0,0,1,2.4-2,5.1,5.1,0,0,1,2.4-.592h.445a.931.931,0,0,1,.636.176.828.828,0,0,1,.191.624v2.687a.886.886,0,0,1-.175.608.816.816,0,0,1-.62.192q-.223,0-.572-.032c-.234-.021-.531-.032-.891-.032a9.434,9.434,0,0,0-1.781.208,8.751,8.751,0,0,0-1.781.528V23.061a.887.887,0,0,1-.175.608.815.815,0,0,1-.62.192Zm88-19.543a2.351,2.351,0,0,1-.732-1.823,2.351,2.351,0,0,1,.732-1.823,3.139,3.139,0,0,1,3.88,0,2.355,2.355,0,0,1,.731,1.823,2.355,2.355,0,0,1-.731,1.823,3.138,3.138,0,0,1-3.88,0Zm-75.9,0a2.352,2.352,0,0,1-.732-1.823A2.352,2.352,0,0,1,31.876.671a3.138,3.138,0,0,1,3.88,0,2.353,2.353,0,0,1,.732,1.823,2.353,2.353,0,0,1-.732,1.823,3.137,3.137,0,0,1-3.88,0Z" fill="#fff"/>
</svg>
