<svg xmlns="http://www.w3.org/2000/svg" xmlns:xlink="http://www.w3.org/1999/xlink" width="34" height="24" viewBox="0 0 34 24">
  <defs>
    <clipPath id="clip-path">
      <rect id="Rectangle_84" data-name="Rectangle 84" width="34" height="24" transform="translate(0.296 -0.026)" fill="#ffde00"/>
    </clipPath>
  </defs>
  <g id="Group_223" data-name="Group 223" transform="translate(-0.296 -0.076)">
    <g id="Group_222" data-name="Group 222" transform="translate(0 0.102)" clip-path="url(#clip-path)">
      <path id="Path_3154" data-name="Path 3154" d="M6.652,19.233c-.735,0-1.33-.386-1.33-.862V5.714c0-.476.6-.861,1.33-.861s1.33.385,1.33.861V18.371c0,.476-.6.862-1.33.862m6.652-3V7.848c0-.476-.6-.861-1.33-.861s-1.33.385-1.33.861v8.389c0,.476.6.861,1.33.861s1.33-.385,1.33-.861m5.322,6.986V.861c0-.476-.6-.861-1.33-.861s-1.33.385-1.33.861V23.223c0,.476.6.861,1.33.861s1.33-.385,1.33-.861M34.593,12.531v-.979c0-.476-.6-.861-1.331-.861s-1.33.385-1.33.861v.979c0,.476.6.861,1.33.861s1.331-.385,1.331-.861M29.271,13.6V10.484c0-.476-.6-.861-1.33-.861s-1.33.385-1.33.861V13.6c0,.476.6.861,1.33.861s1.33-.385,1.33-.861m-26.61.514V9.971c0-.476-.6-.861-1.33-.861S0,9.495,0,9.971v4.143c0,.476.6.861,1.33.861s1.33-.385,1.33-.861m21.288,3.521V6.449c0-.476-.6-.861-1.33-.861s-1.33.385-1.33.861V17.635c0,.476.6.861,1.33.861s1.33-.385,1.33-.861" transform="translate(0 -0.068)" fill="#ffde00"/>
    </g>
  </g>
</svg>
