<svg xmlns="http://www.w3.org/2000/svg" width="1759.324" height="316.611" viewBox="0 0 1759.324 316.611">
  <g id="Group_1" data-name="Group 1" transform="translate(-173.601 -239.539)">
    <path id="Path_1" data-name="Path 1" d="M287.439,258.146c-13.5-6.326-26.152-9.7-40.9-9.281-25.722,0-41.734,16.024-41.734,43.009,0,30.773,16.858,51,45.106,79.25,38.363,38.363,51.432,56.913,51.432,92.75,0,43.009-25.71,70.828-73.353,70.828-15.6,0-37.517-4.217-54.387-14.749l3.372-5.909c17.716,10.115,34.574,13.07,50.6,13.07,25.71,0,43.414-10.532,43.843-42.581,0-28.664-10.961-46.368-45.118-79.25-30.773-29.94-51.432-55.233-51.432-94.442,0-43.426,29.523-69.565,70.841-69.565a97.067,97.067,0,0,1,44.676,10.544Z" transform="translate(0 20.185)" fill="#f5d721"/>
    <path id="Path_2" data-name="Path 2" d="M277.123,400.507V526.985H240.87V405.154L183.957,241.576h38.779l49.753,147.137,50.586-147.137h8.852Z" transform="translate(120.415 23.686)" fill="#f5d721"/>
    <path id="Path_3" data-name="Path 3" d="M321.779,526.985H196.993V241.576h36.254V519.4h88.532Z" transform="translate(271.992 23.686)" fill="#f5d721"/>
    <path id="Path_4" data-name="Path 4" d="M359.436,241.576,287.761,532.048H278.91L204.293,241.576h39.625L296.613,460.8l53.97-219.228Z" transform="translate(356.873 23.686)" fill="#f5d721"/>
    <path id="Path_5" data-name="Path 5" d="M217.83,526.985V241.576H254.1V526.985Z" transform="translate(514.276 23.686)" fill="#f5d721"/>
    <path id="Path_6" data-name="Path 6" d="M350.485,526.985H224.007V241.576H342.479v7.589H260.273v129h66.181v7.589H260.273V519.4h90.211Z" transform="translate(586.099 23.686)" fill="#f5d721"/>
    <path id="Path_7" data-name="Path 7" d="M256.85,290.125c0-10.948-5.493-21.075-18.133-26.126,0-13.082,9.269-24.459,23.184-24.459,11.807,0,22.767,9.268,22.767,25.293,0,34.158-19.812,53.541-43.843,73.783l-5.9-6.326C248.831,318.373,256.85,303.624,256.85,290.125Z" transform="translate(713.084 0)" fill="#f5d721"/>
    <path id="Path_8" data-name="Path 8" d="M353.394,258.146c-13.486-6.326-26.139-9.7-40.888-9.281-25.722,0-41.734,16.024-41.734,43.009,0,30.773,16.858,51,45.106,79.25,38.362,38.363,51.432,56.913,51.432,92.75,0,43.009-25.722,70.828-73.353,70.828-15.6,0-37.529-4.217-54.387-14.749l3.371-5.909c17.7,10.115,34.574,13.07,50.586,13.07,25.722,0,43.426-10.532,43.843-42.581,0-28.664-10.948-46.368-45.106-79.25-30.773-29.94-51.432-55.233-51.432-94.442,0-43.426,29.511-69.565,70.828-69.565a97.081,97.081,0,0,1,44.689,10.544Z" transform="translate(767.048 20.185)" fill="#f5d721"/>
    <path id="Path_9" data-name="Path 9" d="M382.2,526.985H257.4V241.576h36.267V519.4H382.2Z" transform="translate(974.379 23.686)" fill="#f5d721"/>
    <path id="Path_10" data-name="Path 10" d="M265.378,389.937c0-88.532,61.977-148.829,151.771-148.829s152.2,61.559,152.2,147.983c0,88.115-63.239,148.816-151.771,148.816C326.937,537.907,265.378,477.623,265.378,389.937Zm263.07,0c0-86.436-43.843-142.073-111.3-142.073-66.6,0-110.87,56.066-110.87,140.8,0,86.007,43.426,142.5,111.3,142.5C484.189,531.164,528.448,475.1,528.448,389.937Z" transform="translate(1067.144 18.243)" fill="#f5d721"/>
    <path id="Path_11" data-name="Path 11" d="M444.51,241.576,372.836,532.048h-8.852L289.355,241.576h39.638L381.688,460.8l53.958-219.228Z" transform="translate(1345.938 23.686)" fill="#f5d721"/>
    <path id="Path_12" data-name="Path 12" d="M429.387,526.985H302.909V241.576H421.381v7.589H339.175v129h66.181v7.589H339.175V519.4h90.211Z" transform="translate(1503.538 23.686)" fill="#f5d721"/>
  </g>
</svg>
