<svg id="Group_113" data-name="Group 113" xmlns="http://www.w3.org/2000/svg" width="24.12" height="22.975" viewBox="0 0 24.12 22.975">
  <path id="Path_27" data-name="Path 27" d="M305.726,19.928h0a1.082,1.082,0,0,0-1.18.235l-6.151,6.152h-2.683a1.085,1.085,0,0,0-1.084,1.084v7.869a1.084,1.084,0,0,0,1.084,1.084h2.683l6.151,6.152a1.083,1.083,0,0,0,1.849-.766V20.929A1.081,1.081,0,0,0,305.726,19.928Zm-.487,21.634-6.2-6.2a.58.58,0,0,0-.409-.169h-2.85V27.47h2.85a.58.58,0,0,0,.409-.169l6.2-6.2Z" transform="translate(-294.628 -19.845)" fill="#fff"/>
  <path id="Path_28" data-name="Path 28" d="M319.7,31.517a.506.506,0,0,0-.138.7,7.181,7.181,0,0,1,0,8.005.506.506,0,0,0,.138.7.5.5,0,0,0,.282.086.506.506,0,0,0,.42-.223,8.2,8.2,0,0,0,0-9.135A.5.5,0,0,0,319.7,31.517Z" transform="translate(-305.117 -24.734)" fill="#fff"/>
  <path id="Path_29" data-name="Path 29" d="M324.982,27.033a.506.506,0,0,0-.8.617,10.847,10.847,0,0,1,0,13.266.506.506,0,1,0,.8.616,11.857,11.857,0,0,0,0-14.5Z" transform="translate(-307.056 -22.795)" fill="#fff"/>
  <path id="Path_30" data-name="Path 30" d="M329.567,22.426a.506.506,0,0,0-.782.643,14.621,14.621,0,0,1,0,18.551.506.506,0,1,0,.782.642,15.635,15.635,0,0,0,0-19.835Z" transform="translate(-308.995 -20.856)" fill="#fff"/>
</svg>
